<mxfile host="app.diagrams.net" modified="2022-03-08T06:35:33.866Z" agent="5.0 (Windows NT 10.0; Win64; x64) AppleWebKit/537.36 (KHTML, like Gecko) Chrome/98.0.4758.102 Safari/537.36" etag="Kvdg1x1D7--tOrw4ph2D" version="16.6.7" type="github">
  <diagram id="-buse4SnMWgYtJ-Bd-8_" name="第 1 页">
    <mxGraphModel dx="1422" dy="1931" grid="1" gridSize="10" guides="1" tooltips="1" connect="1" arrows="1" fold="1" page="1" pageScale="1" pageWidth="827" pageHeight="1169" math="0" shadow="0">
      <root>
        <mxCell id="0" />
        <mxCell id="1" parent="0" />
        <mxCell id="0Yolceih9RA4fNprkh5m-1" value="底层封装" style="swimlane;" vertex="1" parent="1">
          <mxGeometry x="130" y="440" width="1210" height="310" as="geometry" />
        </mxCell>
        <mxCell id="0Yolceih9RA4fNprkh5m-2" value="kafka-starter" style="rounded=1;whiteSpace=wrap;html=1;" vertex="1" parent="0Yolceih9RA4fNprkh5m-1">
          <mxGeometry x="479" y="70" width="120" height="60" as="geometry" />
        </mxCell>
        <mxCell id="0Yolceih9RA4fNprkh5m-3" value="" style="rounded=1;whiteSpace=wrap;html=1;" vertex="1" parent="0Yolceih9RA4fNprkh5m-1">
          <mxGeometry x="19" y="165" width="941" height="125" as="geometry" />
        </mxCell>
        <mxCell id="0Yolceih9RA4fNprkh5m-4" value="底层资源" style="text;html=1;strokeColor=none;fillColor=none;align=center;verticalAlign=middle;whiteSpace=wrap;rounded=0;" vertex="1" parent="0Yolceih9RA4fNprkh5m-1">
          <mxGeometry x="19" y="165" width="60" height="30" as="geometry" />
        </mxCell>
        <mxCell id="0Yolceih9RA4fNprkh5m-5" style="edgeStyle=orthogonalEdgeStyle;rounded=0;orthogonalLoop=1;jettySize=auto;html=1;" edge="1" parent="0Yolceih9RA4fNprkh5m-1" source="0Yolceih9RA4fNprkh5m-6" target="0Yolceih9RA4fNprkh5m-12">
          <mxGeometry relative="1" as="geometry">
            <mxPoint x="379" y="172.5" as="targetPoint" />
          </mxGeometry>
        </mxCell>
        <mxCell id="0Yolceih9RA4fNprkh5m-6" value="elasticsearch-stater" style="rounded=1;whiteSpace=wrap;html=1;" vertex="1" parent="0Yolceih9RA4fNprkh5m-1">
          <mxGeometry x="337" y="70" width="120" height="60" as="geometry" />
        </mxCell>
        <mxCell id="0Yolceih9RA4fNprkh5m-7" style="edgeStyle=orthogonalEdgeStyle;rounded=0;orthogonalLoop=1;jettySize=auto;html=1;" edge="1" parent="0Yolceih9RA4fNprkh5m-1" source="0Yolceih9RA4fNprkh5m-8" target="0Yolceih9RA4fNprkh5m-13">
          <mxGeometry relative="1" as="geometry">
            <mxPoint x="249" y="189.5" as="targetPoint" />
          </mxGeometry>
        </mxCell>
        <mxCell id="0Yolceih9RA4fNprkh5m-8" value="cache-starter&lt;br&gt;J2Cache 一二级缓存" style="rounded=1;whiteSpace=wrap;html=1;" vertex="1" parent="0Yolceih9RA4fNprkh5m-1">
          <mxGeometry x="174" y="70" width="120" height="60" as="geometry" />
        </mxCell>
        <mxCell id="0Yolceih9RA4fNprkh5m-9" style="edgeStyle=orthogonalEdgeStyle;rounded=0;orthogonalLoop=1;jettySize=auto;html=1;fontFamily=Helvetica;fontSize=12;fontColor=default;startSize=23;" edge="1" parent="0Yolceih9RA4fNprkh5m-1" source="0Yolceih9RA4fNprkh5m-10" target="0Yolceih9RA4fNprkh5m-14">
          <mxGeometry relative="1" as="geometry" />
        </mxCell>
        <mxCell id="0Yolceih9RA4fNprkh5m-10" value="dao-starter" style="rounded=1;whiteSpace=wrap;html=1;" vertex="1" parent="0Yolceih9RA4fNprkh5m-1">
          <mxGeometry x="14" y="70" width="120" height="60" as="geometry" />
        </mxCell>
        <mxCell id="0Yolceih9RA4fNprkh5m-11" style="edgeStyle=orthogonalEdgeStyle;rounded=0;orthogonalLoop=1;jettySize=auto;html=1;entryX=0.5;entryY=0;entryDx=0;entryDy=0;" edge="1" parent="0Yolceih9RA4fNprkh5m-1" source="0Yolceih9RA4fNprkh5m-2" target="0Yolceih9RA4fNprkh5m-15">
          <mxGeometry relative="1" as="geometry">
            <mxPoint x="539" y="183" as="targetPoint" />
          </mxGeometry>
        </mxCell>
        <mxCell id="0Yolceih9RA4fNprkh5m-12" value="elasticsearch" style="shape=image;verticalLabelPosition=bottom;labelBackgroundColor=default;verticalAlign=top;aspect=fixed;imageAspect=0;image=https://static-www.elastic.co/v3/assets/bltefdd0b53724fa2ce/blt36f2da8d650732a0/5d0823c3d8ff351753cbc99f/logo-elasticsearch-32-color.svg;" vertex="1" parent="0Yolceih9RA4fNprkh5m-1">
          <mxGeometry x="372" y="202.5" width="50" height="50" as="geometry" />
        </mxCell>
        <mxCell id="0Yolceih9RA4fNprkh5m-13" value="redis" style="shape=image;verticalLabelPosition=bottom;labelBackgroundColor=default;verticalAlign=top;aspect=fixed;imageAspect=0;image=data:image/png,iVBORw0KGgoAAAANSUhEUgAAAFgAAABMCAYAAADp0nC5AAAAAXNSR0IArs4c6QAACodJREFUeJzdXE1sG8cV/mZ/uBLNZaSIlWxRsexWjRU6QAyoQnzKQYXdSwAHlZEYrXVQL0bdIj6lLdAEKBD0EPTkILXgkw82gjSNABvopRasQ082ZAMNGsl2WtSSYSmWQlUyVxJF7s5OD+wwpEQud2aHktLvYsDanZl9fPO+9743uwTfEtwdGDDtwvKPwcgnW/507MXpR/8ggL8rC2sAstsLCMLdgQHT3vxPMfQNhJ158YvZP+8lY+85AzNA++fRQx8xkJ9HHOrYkelHnytZVATsGQM/PHr4FQB/Vz0uARvLtXRc+MG9e67qscPNv4toFAKs/gx8Jwd3/omaCQk7c+SL2T+pGSzklDs5GQAwgHz58qE3a5DVNsQHj6PnysfIT93BsxufIXd9fNs1mp1E4ocnkBg6ifzUbaxcvRJqHU7L87Gd8OodM/B0JpMwSN4Rva/7w8tIDJ0AAPhODs+uj2N9cgJGOo3E0Mny3wDg0Y9eE/f2EjF+SgAmurZQwzdjUA4VhGWme3D4r39reF3uxjie/vYd2WkAAB5rtY/OzKxFGmQLDJWDccy81HtA17SFLyOOY6Z70HZ2FL6Tg2YnA69du3Uz4myAQfLOw6OHlXq1Mg++OzBgJjeXL0ZNrzQ7iefeGEby1DCs/ozQvbkb41i7dRNrkxNRllAF6vvdmftzX8neH9nAqtIrzU6ifWQUHecvRB0K7sITrN2awOq1K8oyEAI29v3p2V+KFjFSBhausCRgpntgdvcAAKz+l6DZSVj9mSpSq0R+6g6AknHd+SfwnRwKD+5jY+q28rWJeLWQgR++fOitMOlVM9H72V+qQodU5gCAMgbHp1jxKOaLLvpaLOw3TaExwhQxDQ0sml5pdhIt/Rm0Dr4KoJTLViKqh/HcGADWJiew8PY5ofs3fR/LnoecT0FZicPuruUBAAldQ6a1FX0tFmJEeHPXLM1rjiJSDADRiAkoGWpt8mbNQqIW9v/+D0ieGsbC2+dCERplDKuUYoV62PS3h1Bu4Er0tVhSXg1Up3tVBubplchgyTeG0fnr9xqmUWFQeDCDp+/+CoUHM4HXaXYSL1z5GHOnXw+8bt33sep5WKFe4HW1DMyR0DX0tbSgz7KQ0LXAcbbCaXk+RgA5wwJAYugEuj+8LHpbIHwnh3+ffA2+kwu8TrOTNa/h3rrsuSiycGlskIErcdCKoc+ycNCKhboeALTpTCYhY1wAaB/5mcxtgeAxvBFqGTdHKe5v5vGVWwxtXBEUfSY0LmUMBmHrNoiY63NsTN0uk5lKuAtyuWtS13GkpRUr1MOq5ykxckLXcDAWQ6a1VShEFBjDv/KbMO5vrKO3NQ5b14UnX750MTA3FYXv5LD0wfuRigOTEHQaJjoNEzlKsUo95CgVHkcmHAAlr110PTx1XVDGQK72pg4QaAsp00B3LAZLPD1BfPA4Os5fkPZm38lhbXICy5cuqtN+K+AyFujVlWmaLKFtNSxH2cD8P6IY2kz3oHXwVVhHMmjpz0Cz7ZppW37qDqiTQ+HBDPJTd5pSbdVDLa9ecqmUtwKlULBQLGLFo1WG5dhmYA5b19Flmmg3xENHs8GJkJfQ8cHjMNJp6HYSc6dfD7ULeCW3T9NhSjiTQymynoesG5wC1pUrHUrhUApLI+gyTaQMA7rEQqLA6s/A7E6X/v2fNhEUhp6++07oEKMTgjZdXK3Neh4Wiy42ahQstdBwhoLP8LhQxHzRRbtR8uq4Jpd11EI9b+RCT1isTU6ErgRFUS++hkHon5Ayhqxb2hK2riNlGkgZ0fR6zU6i8zfvITF0IlIl6Du5yN2MWtjwfSy6bsMwEIS6MTgMdEKw3zTRYRpSpMjBtYy2kVFhzwUQWpMICx5bHYn0rhIMGCOXB2Duy3ZG1nZ5+JDJpysRHzyOtpHR0Lm1jKJWCzwMZD0XBT96gcI0HBt5tPQ5AYBPM99JFNeJcMe3FlSRopnuQfLUMNpHRuuGj7C6RRBUhIEqEHLm7Oxi+exFlQWihItaSJmGElJMvjGM506d3pZBPBn9iXQOrSoMcFgaQXcshpRhVJ25qDLwdCaTyPtrznzRVTYxAMQ1DV0xMzIpmukedJy/gMTQCTy7Po6vP3hf6H7VYQAIrhcC5cpGFYoMdEKQMgx0xczIpAjUVtRqoRnPEnZ3kkYtIcpYKbl21f3qQIkUO4zmVooOLfXbVO1G0awplFypkxJpdZkmHEqx6LpY8aIveMUrNRybUSlmPQ8LxaIyh5AJcVyuJOO9qQPfje9bECGiAmNYLLrIep7S8NFu6NJCE6DesDKpZ125sss0kY6Zwl4kWpuHga3rSMfCPRhlDCuUKjOsLE/UK6fLPr/oljxS1ItSRqlk5vmkCiJxKMWD/Dfhw9b1KjKhjCFHfaxSTxlx8TSrXdeFnKzRbq5bKstWZs0ixWZB9jkjy5WVJCTyyzaLFFUiSrooWqCEkisfbRbwWIKEbF2HresoMIZlSblPJWTDQJQCZUfkSosQdMdMdMdM5SVqGMh2Z1ToFFK1K+92LGhFpAwxubIZpFh3Lsn+4opXCm17Sq7kHr3bpMirrS5TrHBRvY6mypUycQ6I5jmyhlWtU+iE4MzsosZfP6haySeH9l/ymB/1DcvyRLKVGX/oMLHP0ghShrhhVYWBynVUOhY/pF1eEVfUVE8MQLqHx7etQyk2fL+8dXnhYeu6EHE1I0cPejYCNkYA4OHRw9tmU670Q10PTxTN0E7Ccg5pdHS1mXKlih5eEFQXOqIFStbzYGQBdDUYlFdmKsOHbKUYBqoFKNE1UsYwX3Sx6Low5jbW4RgmXrCshr9Ku1GKeSq3XGWlGLXbsdtyZS1FrUrs6TJNoQfkUqFquVL0wVQaVkanCDr5U0V9i27JrcMGcL6YlGGEVpfCgIePuKYhZRpoM7aT4opHy3PullwZJp0MPNkjk1592+RKGZ1CpNcXaDmuOTwmxdDp1VZSXPb2plwpWgTJdk5CuWaJFYuYLxaFNIdmkGIUyDRYo65dWE3jkqVIzLIIwUErhoNWrCk9vEaQDQMqcmjpozayQvxWuVJlpbhtLsGjW6obqOuppdLJnmu9nUr2rSwpqjzOJJNmKQ9hFQcAyytQefBPVnPYablSec9wy8lKoMbL4KpPWMpoDiLhQ8awynmghmHLf6p3j6pOB4csg696pbMPG75f3r5xTUNc19CmG6GJqxmNVwa/e2QuG/hhjoZPygByrbfzjwRQKsSrfpmmHlSTKQPGNlJLF87dQ6hvrgmpKlcPd75CfHWfP1T1Mk0tKG8cEHLmp7OLwl+ikpKtVIcPlUK8akUtTBgIQmQB9tqhrrfAmLLv+Mi+dqDasOuppVjYMBAEZX0blZ1pIFz1xYlL2SsBkmEgcEhVA3H8DtC+19v5kUpSTOoa4to3hvYYKzdCVSBqGAhCUzuPqklRNVSFgSDsSGtXNSlGAQPGzs4t/aJZX1vdih3/frBqUgwLfpRpp+fdtS9gqybFeojtY/abM18r/WStCHb9G+6qSREQr7aaiV03cCWikuJOx9cw2FMG5hANH3vRsBx70sAclwdgxrOdF+uFj90irv9bMICwPe4UW/Ff+xMn6E4ik8MAAAAASUVORK5CYII=;" vertex="1" parent="0Yolceih9RA4fNprkh5m-1">
          <mxGeometry x="205.05" y="202.5" width="57.9" height="50" as="geometry" />
        </mxCell>
        <mxCell id="0Yolceih9RA4fNprkh5m-14" value="mariadb" style="shape=image;verticalLabelPosition=bottom;labelBackgroundColor=default;verticalAlign=top;aspect=fixed;imageAspect=0;image=data:image/png,iVBORw0KGgoAAAANSUhEUgAAAsUAAAHXCAYAAABUPScVAAAAAXNSR0IArs4c6QAAIABJREFUeJzs3Xd81dX9x/H3994wQhhJmGGPEALICAIKuOuo4t5abG0d1Q6ttf3V0aGttopVcVTFvUVEQcXBEGTPQBgJe+9MhhBG7vf8/giRhHuT3CT3e+fr+Xj4gJ7v937vaQjJOx8+5xxLAAAAQISZt2iV2bvvoPbu/0F79x2UJCU2S1Bi08ZKbJag9NQ2SUlJSXv9fZ7l2EwBAACAAPrw0+/NtJlZmrMwR4eKj1R7f0qbZPVO66hbb75AZ55+SpW5l1AMAACAsDbh63nm3Y+nKnPZ+lo/49rLz9DtIy5Sz7SOPvMvoRgAAABhadK0TPPe2O80a352QJ7XonlTvfjEbzRkUE+vDEwoBgAAQFiZOmOp+eiz7zV1RpYjz//yw0fUt1eXCjmYUAwAAICw4HQYLm/z0rfrWZZVUva/4xx/RwAAAKAKZWH4tntHBe0977jv+WMqVyCmUgwAAICQmPD1XPPlpAVBqQz78vS/7tC1l51hSYRiAAAABNGkaZnmu5lZmjZ7mfLy94V0LkMH99RHrz5AKAYAAICzjDHWpGmZ9rzFq/XdzCxt25EX6ilV8O7/7tfZw/pa9BQDAAAgoBZnrTMLl6zR3EWr1G3gr+Tx2KGeUqWWrNggiYV2AAAAqANjjDVnYY6ds2arFmSu0dxFObrm1sdCPS2/LVleGoppnwAAAIBftm7P/Thnzdbrc9ZsVc6arVq5eot27SkM9bTqpHFCvLLnvGIRigEAAPCjoqKixI1b84u2bs/Tth152rqj9NecNVu1/8ChgL9fRkujnEJLRzwBf7TfFk1+vjuhGAAAIEbk5hZl5BXuX5JfsE95hftVULhfu/YUadv2XG3bma+t23NVfPhoUOaS0dLo7Pa2Mlraem2lW7N3uoLyvr6Me+theooBAAAi2bbt+aPyC/fem190QPkF+5RfUBp2y0Jv2VjRvh806MI/hHq6FcJwmdNTjGbvDN2ctu7IIxQDAACEG2OMtXrddjs3f69y8/YqN3+v9uSd+H1B4QHlFe7TwYOHdcal94d6utVq4JZ6JXuH4TJ9mtvq2syljftC08SwdXsuoRgAACAUsldvMRu37NamLbu1cctubdmW+2P47Zxxa6inV2ddmxmlJRn1SDRKT7bVqJrUObStCVkobhTfgFAMAADgpOmzl5mNm0uD76Ytu7Vx627t2l2oS278e6inFjApCUYpjUp/TfUzBJ/sjBSPJm12Ka/YmTlWhVAMAAAQQEVFRYlzFq0rWpC5Wgsy12jN+u269XfPhHpatda4npRQz6hJPalxfalxPaOEelKzBkZtE4zaHA/C/sovtjRrp6Wrunm3UMTHSWe0tTV+Q/AX3MUTigEAAGpvx+6C2zOz1r2WuWydMrPWq/+5zi5ka1RPSoiTGtUzahRXGlAbxZWOxdeT6rmk+i6jem6p/km/d7skt3X8P5eR27LktqQ4S3K7jVyWFHd8rPR6YOc+foNLEza4JUlntjVqEe8dpq/s5tHeI9L07cENxlSKAQAAamjp8vXm+7krNHPuSg396R8D9tx6Lql5vFHzhlLLhqb09/FSi4ZGLeKl5g39r8j6x9fzAv0epcpvuXZGW9tnIC5zay9PSEIx+xQDAABUoywIfz9nhbJWbAjIM9skGHVPNEptVtqH276xM4E01MpXiFvEGz19Zolfr/vXgjitD9LCu0/f/iuhGAAAwJdABmG3JXVPtJWaWParUeN6AZpoGJu906XXVvoOxOM3uNQyvrRyXJkP17g1aYvzVeMZX47cSigGAAA4Ljd3X+oHn01bV9cg3KS+UVpi6ZZkqcerwbFmdaGl/ywu7dRtEW/04EDPj20T/1kcp9WFlq7s5vG56K68nEKXvt1saVm+c+F4S9Y7Fj3FAAAg5pWF4Ut/9nftydtbq2f0Tjbq19JWtxgNweWVD8SSdEfvE4F4/AaXVheW1mXPbFv9x6lXsq1eydLMHUZLc11akhfYmm5Co4aSxEI7AAAQu+oahts3NhrQymhAK1tdmsZ2EC5zciB+cGCJ0pNLPzazd57oL05PrrgDRX6xVeUCvLPa2Tqrna0Dx6RVhS4t2m1p7V6X9h6p23xbJDeVRCgGAAAx6tlXxpvahOEm9aQBrWwNaGWrf0uCcHn5xZUH4vxiq0J/8YMDS8q9xq2rutk6o4pQXKZJPWlwa1uDW0uSR3uPWNq039KW/ZY277e086C094ilIx7/5tyiOaEYAADEoA/GTTdvfjBZo16ZUKPXdW1mdHobW0NSbDWt79DkItxr2e4ff18+EJ987Y7epYk1v9jS/bNK42htT7JLbGCU0dIoo2XF8fxiS7nFUtFhS0VHpE/WuX2+vmP7VpIIxQAAIEZMnbHUvPnBZD302Ns1et3gNkZD23iU0YqqcFXKFs9JpYdwlA/E5a+VD8vlg3LZgrv8Ykv5xarw+tpoEV+6v7NkNH1b5X3IXTu1kUQoBgAAUS579Rbz+vvf6rZ7R/n9mqQGRsPaGp3exqhDk6p3R0Dp4RxloTc92VTYUWL2TpfPsLy60KowLp2oHKcnGz2Y7N9+xv7YuL/ynSu6EIoBAEC0e/ujKeamO5/Uvv0H/bq/VbzR2e1tndXOqGl9KsP+mL3T9eNpdenJJ3qFpdLgW9ZHfHJYLqsSt4g/MV6+chxIm6o4BIRKMQAAiFobNu00T788Xv948n2/7m/X2Ojs47sbxJOO/FY+9JZfPCdVXHR38rXxG1zKLy4NqmX9xeW3aktPCmx1ftsPlYfi3umdLIlQDAAAosyY8TPMTXc+6deuEp2aGp1zPAzHOX9wWlQ5eaeJsnBbxtfCurLXlW3LdkZbu8J2bVLFynEg7DhYeSDu1jlFW7JKf08oBgAAUSE3d1/qEy+MXfeXR9+s9t44lzS8s0fDu9hq4My/2Ee9qnaaKF/1rWwXihbxRneccqJKXFY5rurY59rYeqDyUNz/lK6adnwTEkIxAACIeFNnLDU/u/tJrd2wo9p7B7ayNbyLra4xfupcXVS108TqwhOVYF/Xyl5XPvw6VSWWpK37K7/W75SuP/6eUAwAACLas6+MN/7sLJGSYHRpFzvglchYUz7Ynrx4rnxLRVXXyoff8lXiQAdiSdpyoPK+mL69u/z4e0IxAACISGs37DBPPj/Wr0M4zu1g69pUjxrXC8LEolhVi+ekiq0RJ1+btfNEG8ODA0/0GJevEgf6B5ZdBy1lF/hun+jauY0y+nT78SKhGAAARJwvJy0wI+4aWe1iujiX0U1pts7vGN7V4R0/WNp1UMo/7FLhYenAMenQMUuHPZLHlmwjuSwjt8tSA7dRvFtqXF86v72tlMbBawOpbPGcVLGP+ORr5RfXXdnNoxbxJ/YqdrJKvCyv8n7iC88ZoOnlfp4iFAMAgIgy7otZ5nd/eana+zo3Mbqph6fOJ6M5IafQUnaBS2v3Shv3WSqxKw9vJ1gn/SqlJZqgheLKTqWTvEPvyR/z8Rt89wyXryw70daSlV/5x/X8szP0YLn/TSgGAAAR4/2x08z9f3+92vuGtbV1Uw+PmoRRu8SGfZbm7HRp4W5LB475E4Krt6uK7cYC6eQ+4pNDr6+DOMrkF1s/tkiUD76lxzk7s+OEJG07YGlVoe9+4oH9u2tQRlqFDx6hGAAARITnX/3cPPzvd6q974Y0W5d09lR7X7Asy3dp0maXsgsDH2ALDgf8kV6q6yOuuP2a98e9ssBcWfU4UKqrEn/6dsUxQjEAAAh79zz4inn6pc+qvKdtQmm7RN8W4dEusfOgpXHr3MrMda6a+8Mxxx79o6r6iCvrFS5/vSwwn7wTha/qcSBV1098MkIxAAAIazfc/h/z+TfzqrxncBtbN6XZSm4YHoF46laX3l/tltOz8a8XufZm73RVuh+xVHXbxMnXy4ffsp0onKoSb9xnad1e360TF5wzQN26pHh94DjQEAAAhK0bbv+Pmb94dZX3XJ1q67d9PWETiN9e5dZ7QQjEkuR2MBPnF1t6bWVpqD15z2Gp+raJyqrEkioc8+yEadsrj7gXnN3f5zihGAAAhCV/AvFv+3l0Rdfw6R9+YZlb07cFL14l1HMuetelbUKq2DPs6/Q6STqzbeDnv6rQpVk7fP8ZpLRO0vVXnuVz+SWhGAAAhB1/A/Hg1uGz//D/lrm1eE9wo1XLeGeee3LbxMmht7pFclX1DK8qPNE64StM19WUKn4ouX3ET2VZVomva/QUAwCAsOJPIP7zgBKdEiYL6iTpg9VuLQxyIJak9k2c+RhU1TZRPvCeXEEuU1nPsNML7DL3WMrc47unZEDfVN1+y08rbTihUgwAAMLG3X96sdpA/O+h4RWIZ+9yafLW0ESq1GaBD5ZlgViSrvLRmlJ+8Zyvg1HKt1acHHzzi0/83onWiaqqxLeNuKjK1xKKAQBAWHj8mTHm66mLqrznlfOOqV0QjzWuzv4jlj5c7a7+Rgd0T7SV2CCwz1xdeKKS62u3ifKHeFRXJZa8F9itKnKudWLWDlelh3UMv2CQLr1wcJXLEgnFAAAg5N79+Dvz6rvfVHnPWxccU3yYNX5+usGlg0HYK9iX09oE/pnjN/q3xZqvU+3KlA/VJ3Nq14n9RyxN2lL7KrFETzEAAAixabOWmV/+/pkq7xn9k2NyBedEY79t3i99X8XWX05q4JbObh/YXTfKL67zVQVeXXjiWObKqsTlj24+eRFg2bgTxqx1adsPvp9/24iLdGq/7tW+OZViAAAQMms37Kg2EL9wdokahqZDoUpTtoautnhZV1v1A5ziynaUqKwKXFYlrmwLNqniAruTq8Griypvq6iLbza7NGeX7w9Gp/atdPstF1/tz3MIxQAAIGR+8dunq7z+9JklatogfHqIyxQdkWbvDE3pun1j6bIuga8Sl1VyfS2uK18BrmqBXFU7S+QdX2QXyF7i7AJLY9ZW/hPTX++/SW1bJ43351mEYgAAEBLX/vJxs3N3QaXX/zOsxJF9bANh7s7QRaifpfvcZrdOyqrEZ7S1fVaJy+9LXNmfSfng3DPJ+57VRYHdim3/EUsfrak8EN//m6t14bkD/P7JhVAMAACC7p4HXzaLlq6t9Pqjp5eobUJ4BmJJWpwbmgh1cw+PelWywK22yleJz/QRWP3dW7h864SvYF3WrxwoVfURX3rRabrnzitq9IaEYgAAEFRPPDfWfP7N/EqvPzy4RJ2bhm8gziuWNu4LfuvE5V1tXdTJuX2JK6sSV3YQx8nKKsEtfJyyV36Rna8qck1N2OCutI84rVs7PfzH6/3qIy6PUAwAAILmvbHfmZff+qrS6/93aonSEsM3EEtSTiV74Trp2u4eXZMa2D5i6URbhFT54jd/T6ArqwSnJzl79PaEDe4K8z7Zw3+8UW1bt/Crj7g8tmQDAABBMWv+SjPirqcqvf6H/h71bh7egViSbGczXwWN6xn9vKet09o486blA6+vXmF/F9iVrwT7uq/8zhOV7W/sj+oC8UP33aBzhvWtVRmfUAwAAIJi5PPjKr326z4eZbQKYtqsg3M72Grb2Oj91W5tPeBcG8WwFFvXpdlKcmj3jep6iaWKrRNVLXqs7r5A7DwxeUvVgfgPd12pX//iklr/gdA+AQAAHPfQY2+b5TmbfF67oqutoSmREYjL9Egy+teQEl3b3aP4AO+h3K+lrQcGlujOPh7HArEkzSq3g0Z1p9NV2zpxvJ84vZp+YV/9xv5YsNulD9ZUHYjvu+uqOv2EQqUYAAA46qPPvjcP/PMtn9cGt7Z1tQO9ssFyWRdbF3SwNX2HS3N3umpdOW7eUBrUxtbQNrY6BWmR4Y+n151S/el01S2Oy6+mElyX0+xWFVp6aXnlP3kEIhBLhGIAAOCg7NVbKu0jbt/Y6Ob0yKoQ+9IwTrq4k62LO9nacdDSqgJLm/ZZ2n7QUl6xpYPHKt7fKE5qHm/ULsGoSzMpLdFW12bB7aUu34ZQWXW3Jn3AlR3t/OP1w8fbKxrW7P/n0lyXRmVVHohvvvbcgARiiVAMAAAc9OTzn6hw7wGv8TiX0Yh0Z9sDQqFdQmnYLc+WdOR4Mba+y5LbCv3/5+oW2En+9wGXrwLXNPRWZc4ul15dUXkgvuCcAfrPX28NWFM3PcUAAMAR//3fp2bG3BU+r/0s3VbPAB9CEa5ckuLdpf+FSyCuboGdVLrTg1R9P3FZ64RUfUXZ34V2X292VxmIzxxyil4fdW9AVzkSigEAQMBNmpZpXnjtC5/XLupo67z2kd82EenSk32fPCfV7LCNVUUndp6oTPngXJ0P17j18drKI+qlFw3W+y//OeDbftA+AQAAAmrnnvyrRvz6vz6v9Wlu6+b0yF1YFy1axBs9OLCk0us1qf4Gyv4jlj5Y49L83ZUH4hHXnafHH/6FI/vgEYoBAEBAjXz+0882bN7lNd4yvrRtAqF1Rlu72paIMld2q/4HGH+3Y6tKdoGlMWur3vf5t7ddpv/7/bWObQxNKAYAAAHzxvuTzD//+6HPaz9LL1FKQuh7alG99GSjO07x+B2eJf/6hX21Ykza4tJHa90yVbz8oftuqNPBHP4gFAMAgIBYuGRNpduvXZ/mUUZLAnEk8TcQt2ho1CJeuqpb5fenJxmtVsVWjB+OSWPWujVrR9VL3J78x69041VnOxqIJcnxNwAAALHh+tv+bRZkrvEaH9Ta6Hf9Ku9fRexZXWjpo7Vubd5feRStXz9Oz//7Ll18/qCg5FV2nwAAAHX2zEuf+QzESQ2Mro3gE+sQeFO2ujRySVyVgbh1y0S9+78/BS0QS7RPAACAOpq9INv87NcjfV67JtVWG/qIIam4xNJHa1yaUU27RI/U9hr1+K/Vq0fHoHY0VL4rMgAAgB/2lbR9ZOfuQq/xc9rbuqKKPlPEjjVFlkavdCsrr+pAfPrAdL3839/d0a1zyhVBmtqP6CkGAAC1NvKFceZ/b3zpNd6usdEDAz1qWp8qcaz7bptLY9a4dbSan48u/slAvfL070OWTWmfAAAAtTJjznLz898+7fPatak2gTjGFZdIH691a/r26pew3TbiIv39TzeHtFhLKAYAALXy7OgJPscv6ezRgFa0TcSyFQUufbrOpU1VLKYr8/c/3azbRlwU8u4FQjEAAKix/4z62Lzy9tde42lJRtekEohj2WfrXfp8Y/XL1lo0b6bHHvq5Lv7JwJAHYolQDAAAaui7mVnmV/c86zVuWdI13TyKY8PXmLRhn6VP17mVXVh9xu3Xu4v+9dAv1K93l7AIxBKhGAAA1NCoV3y3TVyb6qlwYhlix6QtLn263q0jfmxJffFPBurhP/yuUYcOVrHzM/MfP8sBAAC//evpj8zynE1e4/1bGl3ahbaJWLP7oKUXl8XpwzX+BeLf33G5Xnn691a4BWKJSjEAAPDT5OmZ5o77nvcabxgnXc2pdTFn1g6XPl3vUtGR6jsgWrVI1F/vv1FXXDwkbNolTkYoBgAAfhk1+nOf45d18ahTE9omYsX+o5Y+Xe/S935stSZJwwb30t/+dJN6pgX3hLqaon0CAABU67lXPzfZq7d4jfdIsmmbiCFLcl16YrHb70D8y5su0Iev/sUK90AsUSkGAADVWLV2m7n2l4/7vEYgjh2fbXDr8w3+heGEhIZ66A83aMR154V9GC5DKAYAAFV69d1v9MNB73VRF3S01bcFbRPRbvsPlsaudWlZvn+B+LRT0/XAPddpQL/UiAnEkhRRkwUAAME1aVqmufOP3ovrWjeSHh58TM3qh2BSCJo5u1wau8atvUf9uz8cjmuuLSrFAACgUq+++43P8cu6eAjEUazElj5e59LkLdWfTCdJbVol6S/3XKerLx0WkYFYIhQDAIBKjH7na/PvZz/2Gh/c2taZ7egljlYb9ln6eK1ba4r8y7fnn9VfD/zhenXv2i5iA7HE7hMAAMCHzdv2bPFVJW4YJ13alUAcrb7b5tLIzDi/A/Ef7rpSbzx/nxXpgViiUgwAAHx49Z1vOuYX7PcaZ0/i6PTDMWnsWrdm7PCvXprSOkl/vf9mXXrh4IgPw2UIxQAAoIIZc5abn//2aa9x9iSOTisLLI1d59aW/f7l27OG9tHf7r9Jad0ivzpcHu0TAACgglff/dbnOIE4+szY4dJTmXF+B+LbRlyk9176kxVtgVgiFAMAgHLe/fg7M3tBttf4+exJHHW+2uTWm9n+7S7ROCFeT/7jVxG73Zo/aJ8AAACSpNzcooyrbn3Mazw53mh4J6rE0eSjtW59u9m/2ugpPTvrnw+M0Kn9ukdtIJYk/348AAAAUa9J6367ZsxZ4TV+baqt3lSJo8arK9yavt2/QHzW0D56/onfXN2jW7sbHZ5WyEV14gcAAP5ZsGSNuf5X//YaP6W5rT+f6gnBjOCE/2a6taLAv0B8+U9P1wtP3B0zWZH2CQAAoFff/trn+MWdqRBHi3/Mi9PmA/5l3BuuPEsjH7ktZgKxxEI7AABi3tgJM83UmVle4+d3tHVKc3qJI91RW7pvlv+B+NYbz4+5QCxRKQYAIOb5OrmOxXXRofCw9H+z6+mYn3+Ud/9yuB649/qYC8QSlWIAAGLayBc+Mes27vQaH97JVnI8rRORbOsBS/fN9D8Q33HLT2M2EEuEYgAAYtay7I3G10EdpzS3dX5HqsSRbMM+S3+b539DwGmnpuuv998Us4FYIhQDABCzXn33Wx07VuI1zuK6yFZcIv1zgf+BuGvnNhr7xoMxHYglQjEAADHpi2/mm4mTFniNs7gu8v1rof+BODmxiaZPeDLmA7FEKAYAICaxuC46vbfarR0/+J9xn3/iLgdnE1kIxQAAxJgXXvvCrFi12WucxXWRbeIml6Zu9T/ajfzHr3Tm6adQJT6OUAwAQAxZs3678VUl7t3csLgugs3eaemTdW6/73/g3ut1w1VnE4jLIRQDABBDXn33G+0/cMhr/NIuHOUcqdbvs/Teav/7iK+74kzd/cvhBOKTEIoBAIgRk79fYsZ9Mdtr/KKOtnol0zYRiY7Z0ti1Lh323kTEp07tW+m+u6+6w9lZRSZCMQAAMeLVd7zbJlo2MrqEKnHE+nitW2uK/I9z9919ldq1af66g1OKWIRiAABiwKvvfmMWLV3rNX5pZ1uJDUIwIdTZrB0uTanBwrqbrz1XVw0fSttEJQjFAABEuc1b92zxtbiuf0ujc9qzuC4SbTlg6eO1/i+s6961nf7vt1ckOTiliEcoBgAgyr367jcd8/L3eY1f0pm2iUg1dq1LB475f/99d1+ppKSkvc7NKPIRigEAiGIz5iw3H4yb7jV+SWePeiSxuC4STd7i0soC/yPcrTeer+EXDKZtohqEYgAAothoH4vrUhKMLulC20Qk2ntE+naL//GtV4+OevSBWwjEfiAUAwAQpd4ZM9XMWZjjNT68s60m9UIwIdTZ5K1uFRz2P+OOuO48B2cTXQjFAABEoV27is4Z/c7XXuOntjI6sx1V4ki0Zb+lSTWoEvfp2Vk/u/ZcqsR+IhQDABCFRr/39fQduwoqjLktaTh7EkesSVtcKqnBzzM3XXOOc5OJQoRiAACizLxFq8xbH072Gr+ki61uzVhcF4mW5bk0ZxdVYicRigEAiDK+9iTu0MRoOFuwRaxJNTikQ6JKXBuEYgAAoshHn31vps1a5jV+SWdb8XEhmBDqbMYOl7IL/C/6UiWuHUIxAABRwhgT52sLtsFtjIamsLguUs3cTpU4GAjFAABEicefGXNs05bdFcbqu0TbRARbtMfS+n1UiYOBUAwAQBSYNX+lee29b73GL+niUeemLK6LVHN2UiUOFkIxAABR4H9vTPQa69zE6FJOrotYqwotLc3zP6q1bN6MKnEdEIoBAIhwL7/1lZm3aJXX+CVdbNXjO33EqskWbJJ0wTkZDs0kNvBXBQCACJazZot58fUvvcaHtrV1WhuqxJFq2wGrxq0T559NKK4LQjEAABHsxTcm6oeDxRXG4uOMhndicV0km7vLJbsGreDdu7bVT87qT+tEHRCKAQCIUGMnzDRfTV7oNX5pF1vtm4RgQgiIvUel2VSJg45QDABABMrN3Zfqa3Fdt2ZGl7C4LqLN3uHS/qM1ew39xHVHKAYAIAK9+OYX6zZv2+M1fmkXm2/uEcxjpLk1rBIPykjTqf260zpRR/y9AQAgwnw3M8u8M2aq1/hZ7Twa0IoqcSSbu9OlHQdrlm9pnQgMQjEAABHGV9tEckOjy7sSiCPdgj01j2YXEIoDglAMAEAEGTV6gslcts5r/MputlrGh2BCCJi1ey2tyK9ZlXhQRnd165JC60QAEIoBAIgQWSs2mP+94b0n8eltbJ3djipxpFu4q+bZdlBGDwdmEpsIxQAARIgX35ioo0dLKow1rS9d0Y1AHOkOHJXm73HX+HWDMtIcmE1sIhQDABAB3vxwspny/RKv8Su6etQ2oQanPCAszd/j1oEabsNWr16czjuzH60TAUIoBgAgzK1au808N3qC1/iprY3O70iVOBosqEXrxJBB6Q7MJHYRigEACHPPjZ6gvfsOVhiLjzO6sitHOUeDFQUurdtbi1A8sKcDs4ldhGIAAMLYO2Ommm++W+w1fmU3o45NaJuIBgt2164DYvAA+okDiVAMAECYWrthu3nu1c+9xvu1sPXTTlSJo0HuIUsLdtU8jiU0aqiB/dPoJw4gQjEAAGHquVe/UEHh/gpj9Vyli+sQHRbusXS0Fm3hQwbSTxxohGIAAMLQB59MMxMnLfAav6KbR90SQzAhOGJ+LVsnhgyinzjQCMUAAISZjZt3mVGjvdsmejW3dVkXdpuIFov2WNp2oHZR7LRTObQj0AjFAACEmVGjJyg3f6/X+JVdCcTRZGEtDuuQpPr149SnVxf6iQOMUAwAQBgZM36G+fyb+V7j13X3qEcSu01Ei9xDlpbk1i7XZvTpFuDZQCIUAwAQNrZszZ14q2UqAAAgAElEQVQ9qpJDOi6lbSKqZOZZKqnlHymh2BmEYgAAwsRzr04Ytmt3YYWx5IbS9ansNhFtMvfUPoKd2i81gDNBGUIxAABh4JPPZ5lPJ87xGr8utURtEmibiCZriqxanWBXZlD/rkkBnA6Oiwv1BAAAiHXZq7eYW37zX6/xCzvaGtqWQBxtFteyl1iSOrZvqaSkJO9VmKgzKsUAAITY48+M8TqkI7WZ0bXdaZuINkc9Vp1aJ+gndg6hGACAEHpk5AdmzsKcCmNuq3S3iQa127ELYSwz11LB4dpXignFziEUAwAQIh999r1568PJXuPXdreVnkzbRDTKrEPrhCQNYJGdY+gpBgAgBJYu32Bu+c1TXuODW9u6pDNtE9Fo98G6tU7EuV3q17srh3Y4hEoxAAAh8NgzH+nAD8UVxlrEG12bRiCOVpm5luqy23RGX1onnEQoBgAgyB56/G2zOGud1/h13W21jg/BhBAUmXl1axIf0JfWCScRigEACKJ3xkw1H3wy3Wv8ok62Tm/DqXXRKqfApQ113EiNRXbOoqcYAIAgmb94lc/9iNOSjK5n+7WolplX91bgU/umdQ/AVFAJKsUAAATJ4898rKNHSyqMNa4n3ZTmURzfkaPW4RIpM7duf8DtUpqrVatm6wM0JfjAX0EAAILg/r+/ZpbnbPIaH5HuUddmbL8WzZbkulR0uG7PYJGd8wjFAAA47NV3vzHjvpjtNX5Vqq0hKfQRR7us/EC0TrDIzmn0FAMA4KCpM5aa2+4d5TU+LMXWlV3pI452+45Ky/LrXoNkkZ3zCMUAADhkRc5mc9u9z3qNd0+0dUtPKsSxICvPpcMl1d9XFcuSMvqmcmiHw2ifAADAAXl5B1Meeuxt7cmruA9X0/rSiHRb8XH0EceCZQHYdYL9iYODUAwAgAMeeOy1nb4W1t2SXqLOTQnEsSC/2FJWXgBaJ1hkFxSEYgAAAuyhx942U2cs9Rq/NtWjwW0IxLEiK8+SJwB/3PQTBwehGACAAHpu9ATzwTjvE+vObGfrsq70EceSQCywk6QB/bpdHZAHoUqEYgAAAmTM+BnmmZfHe42nJRqNSGeniViy65Cl5QHYiq1Vi0S1bd3C+5MKAUcoBgAgAKbPXmb+8uibXuOJDYxu6elRQ3cIJoWQyQrAAjtJ6tWjY0Ceg+qxJRsAAHWUs2aLufiGv/u8dktPWx2b0Ecca5YFYIGdJPVOJxQHC6EYAIA6MMbEdc641ee167t7NLAVfcSxZusBS6sKA1Mp7p3eKSDPQfVonwAAoA56Df31MV/jl3T2aHgXAnEsClSVWJJ6p3faGrCHoUqEYgAAauncK/9iDhUf8R5vb+uGNAJxrMoKwAI7SWqcEK/OHVpTKg4SQjEAALVw4x1PmI2bd3uNn9bG1q292GkiVm3Ya2n93kC1TtBPHEyEYgAAaui2e5818xat8hrv18LWb/oSiGPZsgBViSX6iYONUAwAQA387i8vmakzsrzG05KM/jiAQBzrsgJ0YIdEKA42QjEAAH76v0feMF9OWuA13qGJ0cODSkIwI4STNUWWtuwPYKW4B6E4mAjFAAD44dGRH5iPJ8z0Gm/e0OjR0wnECNyBHZIU53arZ1qHwD0Q1SIUAwBQjZEvjDNvfjjZazyhnvT4UI/cRBco0Fuxscgu2AjFAABU4dGRH5j/vfGl17hL0r+HHlN8HKfVQVqZb2nHQRbZRTJCMQAAlbjt3md9Vogl6YkzjimxQZAnhLAVyAV2EqE4FAjFAAD4cNMdT/jcZUKSHhviUetGQZ4QwpatwG7FJrHILhTiQj0BAADCzTW3Pmbm+tiHWJL+dlqJOjShZQInZOVZyj0U2FCc0bcbnepBRqUYAIDjNm7eZS67+RGzOGudz+v/GlKi1GYEYlS0PIAL7CQprVu7gD4P/iEUAwAgaeny9ebuP7+o5TmbvK4l1JNePPeYOlIhxkmOeAK7FZsk9erBzhOhQPsEACDmjf9qrrn1989o776DXtd6JBk9MKiEKhJ8yspzqehIgPuJWWQXEoRiAEBMe/aV8eYPD4/2ee3c9rZu7cXRzajc8gAvsJOk3lSKQ4JQDACIWfc+9IoZ9coEn9eu7GrrqlQCMSr3w9HSSnGgDTutN4vsQoB/DQIAxJyly9ebK275p5nw9Tyf12/u4SEQo1rLClz64Vhgn9m+bYvAPhB+IxQDAGLKpxPnmFt//4yyVmzwef2OUzy6qJMd5FkhEgXyWOcy9BOHDu0TAICY8cjI980f//qqz2st46VbenrUrwWBGNUrOmJpWYB3nZA4tCOUCMUAgKiXuWydeWLUWL314RSf13sm2/p5T4/aJgR5YohYy/IsHXagw6Z3OovsQoVQDACIam9/NMWMuOspHSo+4vP6We1KA3E9GgpRA04ssJOkfr3S2jryYFSLUAwAiErbtpn4515/49A/nny/0nuuSfXo8q60S6Bm8g5ZjmzFltI6WS1bJuwK+IPhF0IxACDqTJqWae64/+9atXarz+uN6kk/T/doSAqBGDWXVeCSx4HDDfv17qL5kwL/XPiHUAwAiCqPPvWBufOPz1d6vVNTo5+n20pNJBCjdrLznXlu/1O6OfNg+IVQDACICpOmZZpRoyfozQ8mV3rPwNa2bunpUWL9IE4MUWXvESm7wJl+4r69uzjyXPiHUAwAiHjVVYcbxklXdfXop52pDqNusgtdOurQp9Gw03pxkl0IEYoBABHLn+pw3xa2rk611aWpA02giDk5Bc7k1m6dU7Qly5FHw0+EYgBAxFm9bpt59d1vVVV1OM4lXZ1qa3hnjmtGYBzzSNkOheJ+vbto2gRHHg0/EYoBABFl1OgJ5ppbH9cPB4srvad3stFVqR51T6Q6jMDJLrRUdMSZUNy3d1dHngv/EYoBABHhs4lzzGvvfatnXx5f5X1Xpdq6sivVYQRedqFzLb/9WGQXcoRiAEBYW5y11rz23iTd99dXq7yvd3OjK7p61COJ6jCckVPgduzZA/qlssguxAjFAICwtGb9dvPe2O90za2PV3lfwzjp8i4eDe/CzhJwzvq9Lm3/wZlnn5LeiUV2YYBQDAAIK1u353783thp118x4lEVHz5a5b2ntiqtDndiZwk4bKWDrRODT+2hr8Y49nj4iVAMAAgLRUVFiW99NL3oihGPqnBv1SW5xPrS5d08+kkHqsMIDqd2nZCk009Nd+zZ8B+hGAAQci+9OdFcctO/tHN3QbX3DkuxdXk3W20aUR1GcOw6aGltkXOh+KLzTqWfOAwQigEAIfPWh5PNe2On6cnnP6n23t7JRud3tDWgFdVhBJeTVeK+vTrTTxwmCMUAgKB7f+w0M2b8DD0y8oNq7+3arDQMD0shDCM0sgtdjj17YEaavvzQscejBgjFAICgeevDKWbM+Bl6+N/vVHtvu8ZG53ewdR59wwih/UedO9pZop84nNDDAgBw3GvvfmvGjJ+h9Zt2VntvckPp/A4end/RVgPntoUF/DJvl0uvrHDmEzHO7dKGzLfIYmGCSjEAwBHGmLiX3/zq2McTZuqxZz6q9v7EBtK57W2d28FWs/osokN4cPIUu1P7d9eGTMcejxoiFAMAAio3d1/qR+O/Xzf04vv92k2iLAyf095WYgPCMMKHxzi7yG5g/+4a69jTUVOEYgBAQKzI2WQmfDNPF9/0V+UX7K/2fsIwwl12gaXCw86GYoQPQjEAoE6mzlhqxn89V5fe/Ihf9xOGESmcrBI3aRyv887sTz9xGCEUAwBq5YNPppnxX8/VbfeO8uv+Do2NhrQ1GpZCGEZkcLKfeFBGmlbOduzxqAVCMQDAbxs27TQTvp6nCd/M00OPV7+tmiQNaGl0eoqt09qwtRoix8Z9lrYdcG5/4kEZaXrLsaejNgjFAIBqTZu1zHw1ZaF+esPfdPRoSbX3N6lvNKRNaRju1oyqMCJPdoFzgViinzgcEYoBAD5t254/6qupC+/9espC/fL3z/j1mq5NS4Pw6SmGbdUQ0VY62DrRtk1zDR7Qg37iMEMoBgBUUFYVvvC6h3So+Ihfrxnc2uj0Nh6d2pogjMi3+5Cl1Q73E8/71rHHo5YIxQCAWlWFkxpKQ9rYOr2NrU5NCcOIHk4e6yxJgzJonQhHhGIAiGFfTVlops5YWqOqcPdEoyEptk5vY5RQjzCM6OPkrhNS6Ul2CD+EYgCIMbPmrzTfzcjSlBlL9Zs//8+v18THGQ1qbTSwtVG/Fuwigeh14Jizi+x6pLZTr7SO9BOHIUIxAMSA5TmbzNTvl2rqzCyNuOspv1/XI8loUGtbA1sbJbG3MGJATqFLxdVvsFJrA/unafI4556P2iMUA0CU2rx1z5bvZmZ1nDJjqS7z87Q5SUpuKA1sZWtga1s9kgjCiC3Z+U73E6c5+nzUHqEYAKLMJ5/PMlNnLtV5Vz0gj8f/Vof+LY0GtrI1qI2thm4HJwiEKds43088KCPtIUffALVGTwsARIHJ0zPNlOPtEYVFB/x+XduE0j7hga1tdWpCVRixbWWBpacynasXDuzfXZ++/VeyV5iiUgwAEWpB5moz5fulmjJjqe6473m/X+d2SYOOt0cMbG2ojgDHZTu8FdvAjDR9+rajb4E6IBQDQASZNX+lmbtwleYszNH1t/2nRq/t2sz82CvcupFDEwQiWHahs0c7D2IrtrBGgQAAwtjOPUVXzV2Y/dm8Ras0d+Eq7dxdUKPXt2pklNHSaEBLW+nJtEcAldm039Ij852rFTZOiFf2nFfIXWGMSjEAhJmsFRvM3IWrNHfxKp1xyR9rtFhOKt1TeEBLo4xWRgNa2XLzbRioVo6DexNLpbtOZM9x9C1QR4RiAAgDk6ZlmnmLVmnuolW64pZ/1uoZfVvYGtDSaEBrW83qB3iCQJRzup94UEZ30U4c3gjFABAC6zfuNPMWl7ZEzFu8Snf+0f+FcuV1bVZWFfaofeMATxKIEbnFluNbsQ1kf+KwRygGgCCZuzDHzF20SnMX5ugnVz9Y6+ekJBj1bUGfMBAoTleJU1on6bQBPWhkCnOEYgBwSM6arWbR0rVanLVOi7PW6aY7n6zVc1ySeiYb9Uy21TNZSk2sWY8xgKrlOL0VW/80zZ/k6FsgAAjFABAgm7buNpnHA/DirPW6+Ia/1fpZLeKN0pOMeiYb9UoySo6nIgw44eCxIGzFRutERCAUA0At5eUdTFm0LGfn4qx1WrR0rc65/C91el7a8RCcnmTUM8mWxT+2Ao7LLnDp4DFn32NQBvsTRwJCMQDUwIw5y83iZeu1aOlaDbnkHh07VlLrZyU1MD8G4Z7JRm0aUQ0Ggs3pBXZp3dqpV49O/IgbAQjFAFCFRUvXmkVL1yoza50WL1unn//26Vo/q6G7tBqclmgrLcmoe6KRi2+VQMgYU1opdtLAjDRN+dTRt0CAEIoBoJyTF8dd+8vHa/0sS1Jakq3URKO0xNK2iIZ81QXCRnahpbxiZ9+Do50jB1+eAcS0QC6Ok6SOTcyP1eBeyUZNOEQDCFtOb8UmSYP693jO8TdBQBCKAcSUQC+OaxVv1D3JqGeSUa/mRs0b0hcMRIqVDrdOnNovVR3at/iDo2+CgCEUA4h6gVwc17S+SqvAzW31Si49SANA5Nm4z9LWA04f7Zymz95x9C0QQIRiAFEnkIvj6ruM0pOlXsml7RCdmhKCgWjgdJVY4mjnSMO6ZwARL2vFBpO5bL0yl6/XkuXrtWt3Ya2fZUnqkWSrV/PSINw9kRAMRKP/LHJrdZFzwTghoaFy5owmZ0UQKsUAIs7ynE0mM2udlizfoCXL1+uKW/5Z62e5XVLPJFs9ksyP/wGIbrsPWo4GYkka2K+7cuY4+hYIMEIxgLCXvXqLyVx2PAQvW6/Lbn6k1s9q4Nbx8GsrPdkotRkhGIg1K4Ox60RGmt51/F0QSIRiAGFn1dptJ0Lw8vW65Ma/1/pZjeKM0pNKWyJSkwjBAKTsQuf7iTnaOfIQigGE3MbNu8yCJWu0ZPl6LVm2QT+9/q+1flaTeqUBOC3JqFsiIRhARfuOWI7vT9ymVZJOH9iTfuIIQygGEBKZy9aZOQtyNHtBjs698oFaPyexQekWaamJhGAA1csutHTE4+x7DMxI04LJzr4HAo9QDCBovpuZZWYvyNbchTm6+heP1eoZyQ2l1GaEYAC1E5R+Yo52jkiEYgCOyc0typi5IHvJ3AU5mr0gW7+659kaP6O+S0pPZmEcgLo7Zks5QVpkh8hDKAYQUKvWbjNzF5aG4DMu+7OOHDlW42e0a1y6OC49yVZ6sq2m9R2YKICYk11gqeiIs6G4e9e26p3eiX7iCEQoBlBn8xevMrMX5GjOgpxaLZJr6JZ6Ni/dKzg9yagLp8YBcMCKIJxiNygjTVM/c/xt4ABCMYBaWZGz2UycvECTpi/RDbc/UePXd2xSGoDTk2z1SJYa1yMIA3DOUY+lJXnOF3AH9qd1IlIRigHUyOffzDMTJy/UpTf/o8av7Z5oq08LqW9zW13oDQYQREvzLBUWB6OfuPtYx98EjiAUA6jW+k07zZeTFmjipIW658FXavTaHklGfVvY6tPcqBNtEQBCJDPX+UA8oG+qOrZvdYPjbwRHEIoBVGry9EwzcfIiXXjNw/LYtt+v69XcVp/mUp/mtjo0IQgDCK3CYktLgxCKB2WkaTxnO0csQjGACnbsLrj9y28XvDZx0gLdcd/zfr/ulBZGfZvb6tPCVtsEBycIADW0JM/SUTsY/cSpjr8HnEMoBiBJmjU/20yctEAXXPOQDh487NdreiTZGtDSqH8rozaNqAgDCE9Lg7DArlF8A11wzgDnt7eAYwjFQAwzxsS9+/F3xyZOXqgRd4306zWt4o1ObWU0oJWttCSCMIDwtmW/pZVB2orNsiy+KEYwQjEQgxZnrTMTJy3QwPPvUX7B/mrvr++SBrSydWpro1Nb2XKzLT2ACLE0LzjF22Gn9dK7LwXlreAQQjEQQ8ZOmGkmTl6oa259zK/705NsDWhtNLCVUfOGFEAARJ5g7E0sScMG9wrK+8A5hGIgymWv3lK6ndrkhfrzI29Ue3+bhBPtEansJQwggq0scGnLfudDcd9eXXRKz878G1qEIxQDUerLb+ebiVMW6ZIb/17tvQ3jVBqEW9oa0MqWiy/tAKJAMBbYSaWtE19+GJS3goMIxUAU2bbNxH8z/dtDn02cq9898HK19/dKtn+sCic3DMIEASBIgnWssyQNGdQzKO8DZxGKgSiwet02M/6rubrq1nuVV7Cvynub1JeGpNga2oajlgFEr2Ad69wupbnOHtqHf1+LAoRiIILNWZhjPv1yti6+4W+y7aoDbuemRkPa2BqSYtSsAWEYQHQLxrHOkjTstN6a+01Q3goOIxQDEejzb+aZzybO1c13PlntvQNalQbhwa39P6YZACJZsI51lkp3nXgqKO8EpxGKgQjyxgeTzPiJc3XPg69UeV/jeqUtEkPaeNQtMUiTA4AwEaxjneMb1tfZQ9KTHH8jBAWhGAhz27aZ+E+//vzQmPEz9M+nql7e3LGJ0ZAUoyEptpJokQAQo+bvDl6VOCkpaW9Q3gyOIxQDYezF178w199xv3buLqjyvoxWtoa0sXVaG4IwgNiWmevSur3BOcVu6Gm9VP3u74gUhGIgDL3y9tfmg3HT9NSLn1Z6T6M4Ha8Ke9Q9kTAMAJI0d1fwNoLgFLvoQigGwsgb708y74+bpv+M+rjSezqUtUi0tpUcTxgGgDLr91lavCc4VeIBfVOV3r0DW7FFEUIxEAbeGTPVfDBuuv7538p7hjs0Njqvo63z2rOLBAD4MndncAKxVHqK3fh3g/Z2CAJCMRBC738yzXwwbrr+/sR7ld6TkmB0XofSMBwXvK/3ABBR8ootzQlmKKZ1IuoQioEQ+HLSAvPOmKl6+PF3Kr2nVSOjc9uXhuGG/E0FgCrN3eXSYU9w3qtzh9YaMqgnrRNRhm+1QBDNXpBt3v5oqn73l5cqvSe5oXRee4/O7WDUuB49wwBQnWO2NGdn8DLq0NN6acaXQXs7BAmhGAiC7NVbzNtjpupnvx5Z6T1N66u0TaKDrWb1CcMA4K85O13ac4hdJ1A3hGLAQTt2F9z+zkdTXrvy5//U0aMlPu9pVE86r72tn3TwKLlhkCcIAFEgmL3ETZs00qUXDqZ1IgoRigGHvPTmRHPVLf/Unjzfhx01cEvntvfovA62WjcK8uQAIEoszXVp7d4gtk4M6qkVs4L2dggiQjEQYGMnzDSvvz9JTz7/ic/rbsvSee1LdF5Ho7YJtEkAQF3MDdKRzmWGndZLo4P6jggWQjEQIKvWbjMvvvGF/vxI5Yd+ntPB1k/a2+rYhDAMAHW1cZ+lhbuD1zrhdrt01pA+W4P2hggqQjEQAKPf+drccPt/tG//QZ/X05NsXdrFVp8WhGEACJS5u4K7efsF52Soc8fWnYL6pggaQjFQB/MWrTIvvv6F/v2s72OZG9eThnfx6JLOnEIHAIFUeNgKeig+/6wMjX46qG+JICIUA7X0xHNjzY13PFHp9TNSbA3v6lHbhCBOCgBixIwdLh08Frz3S05qouuuOJNdJ6IYoRiooa+nLjL/e2OiXn7rK5/XOzU1Gt7Z1mltqA4DgBMKD1uatj24+fT8s/pr6fSgviWCLLj/7gBEsO078x988F9vmbv/9KJWrtrsdd1tSZd3tfXQoBICMQA4aPp2S/uPBDcUX3BORlDfD8FHpRjwwxffzjc33vGEtu3I83k9o6XRZV096taMhXQA4KT8YkvTt7mD+p6dO7bWheeeSutElCMUA9V4ZOT75vcPvOzzWstGRpd2tnVOeyrDABAM07e7dCCIvcSSdMHZGZrxRXDfE8FHKAYqMXdhjhn5wji99eEUn9cv6ODR8K5GSQ2oDgNAMOw5JE3bFvzOzwvOydBfg/6uCDZCMeDD/9740tz865EyxjvwsucwAITG9O1uHSoJ7nv2O6WrTjs1ndaJGMBCO6CctRt2mNv/MMqMfGGcVyCu75JuSPPowUEeAjEABNmug5ambw9+bBl+waCgvydCg0oxcNzH42eYm+98UnkF+7yudWhiNCLdo/QkwjAAhML07S4dDnKVOCGhoS696LQ7gvuuCJXgLt8EwpAxxjoa19k88/J4HSo+4nV9cGtbd/Wx1b4xgRgAQmHHD5beznHLE+Qvw1cPH6prLh12RXDfFaFC+wRi2sIla8zFN/zN/vDT731ev6yLrd/28yiRxXQAEDLTt1k6GoJNfi69cHDw3xQhQ/sEYtb4r+aaX/7+Wf1wsNjrWnxcabvEGW0JwwAQStsOWJq2Pfj/sD2wf3edNbQPC+xiCJVixKQXX//C/OHh0T4DcZemRn8aYBOIASAMTNvuCnrbhCQNp0occ6gUI+Y8+K+3zFMvfurz2pAUWz9L96hJvSBPCgDgZfP+0Ow4kdSssS67YFjboL8xQopKMWLGlq25s2+5+ylTWf/wVd1s3dWHQAwA4WLqNpd8bBfvuOEXDlbLlgm7gv/OCCVCMWLC3IU55lf3Pjts5ryVXtcaxkl3nuLRld08IZgZAMCX+bstzdoRmpjCArvYRPsEot4nn88yv7rnWRUfPup1rUMTo1vSPerB/sMAEDYOHJO+2BCaXWNP6dlJQwb1ZIFdDKJSjKg2avQE86d/vO4zEA9oafTHDAIxAISbLze4teNgaHLp0EG9QvK+CD0qxYhaf37kDfPsy+N9Xruoo62b02mXAIBwsyzPpUlbQ1ezG3YaoThWEYoRlX59/wtm7ISZPq/dnO7RRR1DsAs8AKBKHlv6fGPoAnFK62SdM6wvrRMxivYJRJ1f3fOs+fa7xV7jyQ2N7s0oIRADQJj6YqNLG/aFLpMOGdQzZO+N0KNSjKhhjLGu+9Xj9nczs7yudWxidOcpHnVoQv8wAISjtUWWPt8UmsV1ZQYPSAvp+yO0CMWICnl5B1POuuzPO7duz/O61j3R6Nd9StQyPgQTAwD45fNN7pDsSVxe/1O6hnYCCClCMSLejt0Ftw8dfs9rR4+WeF07pbmtPw7wyE2HGACErW+3uLQyP7RfqFu1SFTPtI58t4hhhGJEtE1bd5uhP/2jz2sDWhnd258dJgAgnG3/wdLnG0PbNiFJ/ft01aKpoZ4FQolQjIi1cMkac87lf/F57fQ2tu7uSyAGgHD3+UaXDh0L9SykjD7dQj0FhBihGBEpZ81Wc/ENf/N57fyOtm5hD2IACHszdri0cHd4bIRFKAahGBFn556iq4Zc9Aef125M8+jizmy5BgDhbs8h6fMN4RGIJal9SsvnQj0HhBYN5Yg4/c/+rSna94PX+O/6lWhQa7ZcA4BIMCrLraW54ROKt2S9QyaKceHz2Qj44aLrHvYZiO8fQCAGgEgxdl14BeL2bVuEegoIA+HzGQlUY8TdT5nV67Z7jd/e26O+LQjEABAJZu906atN4RU/CMWQCMWIEPf//TUza95Kr/Hrunt0Zjt6iAEgEmzcZ+nDNaHffu1khGJIhGJEgCef/8SM+2K21/gFHW1d2oVADACR4HCJ9OEalw6GwfZrJyMUQyIUI8yN+3K2eenNiV7jg1vbGsG2awAQMT5c49a6veEZO5KaNQ71FBAG2JINYWvlqs3mlt/812u8R5KtO/sQiAEgUny72aUZO8IzEEtSclKTUE8BYSB8P0MR8x57ZowKiw5UGGvdSLrtFFv1+MwFgIiwPN/SR2vDr4+4vEQqxRChGGHqkSffN/MWraow1jBOuq13iVrHs9MEEKvm7XJp8362kw2EZfnOR4D84vBcWHey5ERCMQjFCEMfffa9eeujKV7jv+jpUY8kAjEQi6Zvd+mR+XF6ZYVbjeuFejbRYeEe53+4+HCNS7sOhv8PMcnNGl8d6jkg9OgpRlhZsmy9zz7iK7p6NDSFnSaAWPT0kjgtzz8RrIBjcjoAACAASURBVBrV44fjuiostrRot0v9WhgNbu3M19Zx69zKDKMDOqrStm2L8aGeA0IvMj5bETMef3aMfjhYXGHstDa2rk4lEAOxaNo2V4VALEmNKOfU2cI9lo54pGV5zlRx5+506cswO6ADqA6fsQgbf/vPu2Zx1roKYx2aGN3cg50mgFi0JNeld1aFfz9qJFq4p/Tbf35xNTfWQlaepdez+XND5CEUIyyMnTDTvPvxdxXG6rmkET08SmwQokkBCJl9Ry2NW+/9LaoJ/cR1trLA0oZ9zlSIVxVaGr0iTh46XBCBCMUIuVVrt5knXxjnNT4i3aP0ZL6yArHo03Uu7fjBO7g1qc/XhLpatMeZb/2b91savTJOh0oceTzgOEIxQu7J58cqv2BfhbGfdrZ1Tnv6iIFYtDSv8oMemtQP8mSizN4j0sLdJz62DQLU5bD/qPTyCreKDgfmeUAoEIoRUs+89JmZPnt5hbF+LW3dlEYfMRCrZmyv/FtTAjtP1MmiPa4Kldx2jQPz8fzvkjjtjoCt14CqEIoRMlNmLDXPvfp5hbGW8dLPWFgHxKyleS4trWJHBHaeqJuTWyfaBeDMiscXxWkLB6ogCvDlBSGRm1uUcfNdI73Gr+3uUetGIZgQgLBQVZVYYo/iulhVaGlNUcXw2rVZ3T6eTy2J09oiAjGiA5VihMQTz3+yZN3GnRXGLuxo6/Q29BEDsaq6KrEkJcQRwGpr4UlV4i5Njdom1D4UP78sTivz+fNA9CAUI+je+nCK+XTinApj3RJLq8QAYld1VWJJatmISnFt7D0qLTrpWOcBrWpfhHg7x63MIBwTHSy5uftSQz0HhB6hGEGVuWydGfnCJ17j16aWBGwVNIDIs6bIqrZKLEmt4oMwmSg0c7tLB45W/Pj2bl67HzC+2OjSdD9+gIkkxYePvB3qOSD0ouuzGmHvyefH6VDxkQpj13b3qBf7EQMxzd+9c1vH87Wipg4ek2aetMVdSiOjbrXoJ56909Kn66OvgnH46NFhoZ4DQo9QjKB57OmPzILM1RXGMlrauqwLfcRALDt4TFq0u/pvRw3dUtMGhOKamrnDpbziilXiXrWoEmcXWnptZXSuzz985Giop4AwQChGUHzxzXzz2nvfVhhrWl+6NpU+YiDWLdrj0l4/MklLqsQ1dtT2rhJL0uDWNStGZO5xaeTi6AzEknT4yLFQTwFhIHo/wxE2Nm/bs+Vnv/a9/Vr7JiGYEICwsijXv/pMqwSHJxKFZm53aaePQzVSanBox/TtLr2dE30tE+WdfKoqYhOhGI4b+fy4jtt35lcYO6udrbPb0TYBxLoNe+X3tl6tqBTXiJF8HpcdH2fUzM/jsr/c6NK4KOwhPtnuPUWhngLCAO0TcNTLb31lvpqysMJYSoLR1akEYgDSolz/A1crtmOrkZk7XNp6wEeV2M+K+wdr3DERiCVpdy6hGFSK4aA5C3LMiLu92yauTrWVxGIZIObtP2Jp/i7/97pl54maqWzf5/qu6j+Oo1e4NXdX7NTNCMWQCMVw0JMvfCLbrvjF96JOdo0XeACITjN2WCo64n8obskR8H6bu9OlDftqfrjGoRJLLy13a0WMnVRHKIZE+wQc8td/v2OWrdxYYaxrU6Oru7HbBADpUIk0Y2fNvgXRU+y/mn5sJWnPIenJxbEXiCVpd25hqKeAMEAoRsCNnTDTvDd2mtf41akeNeTfJgCodAFY3iH/w1f7GuyWEOsW7bG0urDyj+3+o97XNuyz9OTiOG3eH3uBWKJSjFKEYgTUqrXbzJM+jnG+oqtHfVrwTQ3A8b1za3hMcLvGDk0mClXWS1xm50FLm8qF36V5Lj25OE4Fh2MzEEvS0aMl2rI1d3ao54HQIhQjoEa+8InyC/ZXGOvV3Ga3CQA/qmzv3Kq0S+BriD+W5rq0oqD6b+2Zx4/VnrXDpVFL3TpCZ5tWr9/GUc8xjlCMgHn2lfFm2qxlFcbiXNLV3fhmBqCUMb73zq1O+yb8S5M/pm/374eNFQWWvt7s1uvZsbHlmj9Wr98e6ikgxOjwREB8/s08c8+Dr3iNX5Nqq3si38wAlJq+3ffeudWhfaJ6mXssLcv37weOzfutmO0frszqtdtCPQWEGKEYdbYiZ7P5xe+e9hof0Mroks78mxyAUodKpMlbal4ljnNJbTi4o1rTdlD1rQsqxaB9AnX2z6c+UEFhxT7iJvXZfg1ARZO3urWrBjtOlGnHzhPVWrjH5fdx2fBt4+ZdoZ4CQoxQjDr5y6NvmoVL13qNX9PNow70AAI4bs8haUotqsSS1D6BryXV8beXGFVblr2RT7YYRihGrY1+52szZvwMr/FhKbbO7cDXFQAnTNni0g/HavdaKsVVm7/bUo4fO06gesuzN4V6Cggh/hahViZ/v8T8+9mPvcZbNTJsvwaggvX7LE3ZVvt+1/YssqvStDp8bFFR1kknsSK2sNAONbZh007zi9894/Pa1d1steAoVgDl1GZxXXndEvlBuzKzd7m0pojWiUDJWkEojmVUilFjjz71obbtyPMa/0kHW0NS+OYF4IQluZYW7K79t5p2CUaN6wVwQlFm+jYCcSCt37Qz1FNACBGKUSP/98gbZsbcFV7jHZvQNgGgoiMe6YuNdfun/bQk/uWpMjN3uLR+L9/GA23W/JV80sUo/jbBb088N9Z8PGGm17jbkm5Ks9W4Hl9HAJzwxUa3NtXxgIjuhOJKTd/Ot3An0EIRu/gbBb+89t635uW3vvJ57eYeHvVqTpUYwAmrCi1N3FT3bzFdmhKKfZm+3aWN+2idcELWig2hngJChIV2qNa4L2eb+//2ms9r53e0dX5HAnG0OeKRDnssFZdIh4//V1xi6bBHOuyRisv+d4lU7JEOl1gq9kglnsAFmPpuqWGcpXi3UcM4KT5Oahhn1NB9/Pduc/zX0vHS61J9ftQPuf1HpQ/W1H1HhKSGRm3Zo9iLLarETpqfuSbUU0CIEIpRpemzl5lbK9lpoldzWzf34NS6SHHgqKX8w1LBYUv5h47/etjS/iNlQbc09BYfK/2mWztOVK5q9ky3VRqOy4fmhHpGTepJjRtITeqVLtxqUl9qXM+oaX2pcf3S6wiMF5bFaduBun8upCUGYDJRaPo2S1vq2JaCyv1wsFhLV2wwGX268UGOMYRiVGpZ9kZz+c8e9XktsYF0cw9bbr5khI3C44G34LCl/GIp/7Cl/EPW8bHS6m8s8Bjp4DHp4LHyn5z+faI2qXc8INcvDc9N6hs1rmeVBukGpdeb1TdKalj6K7yNWurW2gBtEdalKf8KdbIS29L/t3fncVFV/R/AP/cOO4JsArIvsgiogAouuJFCqZWWmqJmamXlU9rTvjxPuy2W5q96Hp+00rRcKk3Lhco9c0PBFZVtWAcYYNgRmJnz+2OEMoEBvbPe7/v14jV672Hu0Tv3e75z7rnnHCiieYl17XjaZUNXgRgAJcWkQ0UlFS+NnPhMp/tnhynhS6tM6V3lNQ75tUBBHY+Ka0BFkybhrWziIODIBdGqawXqWjnIGgBtiTQPwNkGcLZmf3llcLbW/Nnp+jZrEeUvP+XxSJcLd1s/gMYT32R/ESdILzzp2h+nMg1dBWIAlBSTDo2c+MyyzvZNDVYjzpMaK10rrONQUM+hoE5zq7SgjkPDLS6TS4SnBjRfSK5xQA3QWRJtb3ljkuxsDbjYMDhZAa62DK42muEdpu5AEY/vs4T7BmBnQQ/Z/V2zCjhQSGOJ9eGPk5cMXQViAJQUk5v4R8/rtCWK82SYEiyS+/B60qwCCupuTH4L6qjn11y0DeUoqgc6S5xtLBjcbABXG02S7GYHuNqo4Xp9m4uNXqvcY7ukEmy9Kmyy1t9FDRtqoW5woIhHSQP1EuuDUqlC6v7TLDlxMP2HiwiFHHKDIXc8xeSVNR3u8+3FMJserLstNS24IfHNr+VQ2kgxV+yuKTVJc1H9Xz8LfyaZPIfrCbIabrbXk2dbzTY3GzVcbQFLA3QgljZw2JnL46hM+IOHu9C3wr9qVHLYXyiisThG4Mjxi4auAtEzSopJu4kz/80uXs7vcJ+LDcPCKBWcrKmh6om6Vs18rZcqeVys4lBOCTC5BWoGyJsAeRMPKP6+V5MoOVpf72W+njy72gJuNpphG72tAEcrJmjivK+Qx44cHjUtuvlM96dFO26wv5BDWaOhayEuP6UeR3m5Isbd3Tnd0HUh+kFJMQEAJE9/pdOE2EYCPBKppvF93dCsArKrOVyq4nCxkr/t1bwI6a7aZs30enk1QFui/Hc2EqC3NeBopYajlWZaut5W7IY/t89HrcSfr2oOzUrN/NTNak3PdmaV7j7bgY4Mvg4Ub9rUtdK8xIZQXdOAHXtPnIFu5pokRoiSYpErLKr4eMGSFUsuZxV1WubRKCUiXKmB6ghjQFY1h6vVHDKrNL3BjP6riJG6pgKuNQJljcadYNHQiRsdKORR0UR5mSH8lHrc0FUgekRJsYilZWSxBUtW4GpOcadlHhugwmAPaqD+SlqrSYKzqnlkVnKooxkhCBEUDZ34U00LzUtsSGcv5uGXA6dZ0jh64E4MKCkWqY3f7WcPPvEhGhqvdVpmYaQKw/vS5PnlTRwuVXLIquaQXU0PxhGiSw5WQLgLxZ02Bwp5VHUepoke7Nx7wtBVIHpCSbHIKBQKp+Wf7VC88s76LsvN66/CaG/xNkwNrUC6nEO6nEd6OU/ToxGiJxEu4lrwpCuyBg6p+fQl3NB+Sj2BC5lSFtU/gE6GmaOkWET+t343m5TyFopllV2WSwlTIdFXnAnxGTmPjHIOZ+Q86loMXRtCxKc/9RK325vPo1FJeZgx2PLjYUNXgegBJcVmjjFmsWHr/tZvvj+AZSu3aC0/I0SNZH9xNUrVzcAfMgn+KOFQWE8NECGG1J8esgOgmcrxIM04YTS2/ngE2XklrF+gFzUSZoySYjN17FQm2/XrScQmPokqRV23fmdqsBqTAsWzOIe0lsMfMh5/yDjU6WiuVUJI90W6MnjaUVIMAL/kU0JsTK41t2DLduotNneUFJuRtl7hXb+exMxH3uv270k44N/xSgSIZB7iDLkmGT5RSo0OIcZkoKu47lJ15piMxxk5xSdjs3XHYRSVVLzk4+X2rqHrQnSDkmITxxiz2LsvrfXoyUs96hVuE++pxoP9VehlqaMKGpELlTz2F/I4XU69woQYowFu4vhi3hU1qJfYWFXXNGDL9kPLAFBSbKYoKTZBJ85cYafOXMXxtEz0G7IQSlXPhzzwHHCXvwozQs2/Z+aKgsf+Qg7HqWeYEKMV7qyGdy9KilPzeeTSSphGa+N3B5CTJ2PBgX3pJJkhSopNQMaFXJaWfhXH0jLxx8lMzFiw7Jbfy8YCGO2lxmhvBl8H806Ic2s57C/kcaSYkmFCjN1AN0PXwPCqmjj8kk/z0Rmzquo6rF6/y9DVIDpC33SMSMaFXJaVU4ys3GJczSlGVm4JikoqBHlvRytglLcKo73N/0GWwjoO+4s0QyUIIabhzWFK+IvkuYbObLgswW8FFLdMwdqPl2DC2FjKocwM9RTrSUlZxdTy8pptZfJqaH4UKC1XoExejbz8UhSVVODeOW8IekwHK4YIF4ZwF4YYNzWcbQR9e6NT1gjsK5RgfyGPVvPuBCfErIQ4qUWfEF+o5CkhNiGr1+02dBWIDtC3nFtUUFS+pbq2YYaiuh7VNfWormmAoqYe1dX1qK5tgKK6HpVVtSiTV6O8olpv9Qp0ZIhwVSPKBYgQyZPcVdf+TIYblYauDSGkp6b2U2NKkHimg+zI8tMSXKgUPimeNGEodv16SvD3JcCLS2bg8fmTKI8yI6I/mYwxi6zcktbKqtr2ZLY9sa2pg6K6HjXXtyuuJ79KpXEEb0drhuDeDEGOQHBvNYKdGGxENBytVa15KOWXfAlqaPU5QkzWa8OUCBJxT/FvBTw2XBY+eEeG+2P35je5sfe+wPLySwV/f7GzsJBgzcqnkDgqWvS5lLkwyxOZV1DKKqtqUaWoR0VVLSrbfhR1qKyq1WxT1KJKUQe12jQCsZstg7c9g3cvhkBHhqDemm1idVTGI1XKI7/OLD/CnbK0tEAvOxvY29ugl70N7Gyv//n6Nns7zY+VVfdGRqlUajQ0XkNjYzPqG6+hsfEa6huuobHp+mtjM+obm9DY2KzjfxkRq9g+aiyJMY6OBkOoauLwVpoEVU3CxjJHBzvs/OY1BPp5chcypWzSrNcEfX+i4e7mhG3r/rXK18dtqaHrQm6fSWUUJSUVU7PzS7flSmUoKa26OeFV1KK5udXQ1bxljtYMvS0BFxtN8uvdC/C6nghbi6gHuCuXKnmkFvDIkJvUR1cre3sbuLs5waOP05+vfW78e1CAYacAarurUqXQXG9Virq/vdaiqurPbSq1OIbvkNvz2AAVhvcV72dFVw/Xrf/0GYxNGNgeM7ZsP8Sef+NLwY9DgLB+Pvjl+3fMq1ESKaM8iRcypSw3vxQ5Uhly8mTIzS9FrlSGpmvGf4+c4wA7C8DWgsFWAthZMthacJq/X9/uYAk4WgNOVgyOVkBvK01CTDpX2sBhbwGPAyY+o4SLswNCg70REuSF0GAfhAR5YdiQcEuO48xyNHROnoy13ZW5KYFW1KG4tBJFJZVoaTHdL7Pk1vW1Z1g2UgnTvqpv3YVKHstPC9/j8eaLczFv5vib2vd/v7eBrd/8m+DHI8CwIeHYsvYlo8ypSPcZ/AQWFjLbc5dPNZ48cxUnTl9B5tUCg9XFggdsLf6S1LYnsm3b0L7N3oLB1pKDreTPZNfOQjMPMBHONRWQmi9Baj6PBhPLm7w8XRER5ofBg/ohZkCwWSe/t6u8XBGTXyw/U1RSgcJiOYpKKlBYIkdhcQWKSirAGH1pNEdTg9WYEizOoRMqBryfZoErCmGb4QWzk/Dac7M7fdP7H3qbpWVkCXpMorH0sSl4+rGpBs+ryK3T+8krKamYeups1rbTZ7Nx+mwWLmTm6+Q4ztYMzjaAkzWDiw3Q24r9Lbm9OfG1FGt3hZE6UqwZKlFoAuOGJRIeI+IiEBnmh/6hvogeEFwQ4Ovhb+h6mYvCooqPi2TyJYXFck3SLKtAYbEmgS4tVxi6euQW8ACWjVSir704v/BszZJgV56wjc6EMTFYu2pplwHzak4xW/z8Z7iaUyzosYnG/JQkvP58519KiHHTy4m7eDmf7TucgQO/n8OZc9m39V7Wkj8T3bbE19mawdlaMxbX6fo2+kSarguVHPZKeZzXwfREQnJxdkBCfCQS4iOQMDzqEW9P17WGrpNY5UplrK2XuaBYjuw8GXKkMtAT98ZreF81Hhsgzl7iM+U8VmUIO2wiIswPe7a81a2mjxJj3br/7gSseOsRSkNMkM5OmrSwLH/foQy/fYczcPTkpR79rp0l4GWvhpc94NWLwcsecLVhcLFmsLPUUYWJwZU3cvg5j8chI16WOdDfU5MEx0fizjuGUNAzAVm5xazt2QRNslyCXGkpausaDV01UVsSo0JsH/E9YFfTwuH9NAmK64ULH0697bF5zUvoH+rb7TelxFi3Ro8YgDdemIMgf09qJ0yIoCersJDZHk073LjvcAb2Hcro1tPn7rYMYS4MAQ4MXr0Ar15qOFkJWStiCg4U8diZK0HVNUPX5GbRA4Ku9whHYvjQ/hTgzIRc3tA3W1pQkiuVIfsvD/UWFssNXTWzF+TI8NowcQ6v//KiRPAv/p+veArJiYN7HJsoMdYtT3dnzJ2RiH88fA+1GyZCkBN1Kv0q+37n79j92ymtvS8+vYBQJzVCnBhCnNToYydEDYipKqzjsDOXx8ky4+odHjNiABKGaYZGRIT5U0ATmUtX8lmO9MYZcHLySkxiBhxTMDtchSQ/8fUSHyrm8eVFYYdNvPz0A1g0b+ItxyhKjHUvKKAv5kwfh4Wzk6ktMXK3dYIOHj3Htu44gl2/nOyyXH8Xhpg+akS5aRagIATQrEa3I1diNLNKeLo7Y1JSHO5OikPMwH4UvMhNiksrH87Jk63J+cswjBypjB726wEXG+CtYa3oJbI7gsX1mmETNS3ChZb5sybg9Rfm3PYbFhSVb/ngk+9n/JR6QohqkU5E9Q/A8/+4H2NGDqT2xUjd0onJlcrYJ2t2YtuuPzot4+egSYRj3DUrsBHSJruGw44cHucqjKN3eERcf0yaEIc50xMpUJFbdvZiLsu5/oBfW7KcnVcClUp8PaJdmRSgwoxQ8f2frMqQ4Ey5cDEvaVws1qxcImjM+mJjKlv+6fd0R0RHaMo249fjk7N+82/skzU7Ia+s6XD/GG814jwZolzFF/SIdjtyJdiRy8PQeYJTb3tMTorH5KQ4GidMdEpaWJafkyfza0+W80qQLZWhSlFn6KrpHQ/g7RFKePcSV0fJ9mweP+YKN2xiQP8A/LzpDZ3ErdNns9jyT3/AsVOZunh70YqLCcV3X71CbY2R6/YJKiyq+PitFd8uSd1/usP9UW4Md/mpEOUmrmBHuudiJYcduRLBJ6rvqdiB/XB3chwmTxgW4u7e+/bmByTkNqVlZLGcvBLkFZQhL78U0sJy5BeWmW1PXYIXwyNR4nrA7mQZh8/OCreqk4uzA778v6cRMyBYp8H0vVVb2X+/2qXLQ4hKfsZ6SohNQLdO0v4jZ9lbH32LXOnNc35692JI9ldjjDf1DJObXVMBP+VK8LPAk9T31LR7EnB3cjzG0lguYgLKyxUxuYVlZ/ILytoTZWlhOaSFZWhoMMIpWrrp+SFKRLqIp+NE1shheZoFKgU8Zf9ZvhiTJsTpJY79cvAMW7shFSdOX9bH4czWrc4OQvRP60lavW43e/fjLR3umxqsRrK/Cra0tDHpwJlyTe+wtNZwsSDl/rGYdf9YDIwIpIBEzIJCoXDKlsoV7YlyQRnyryfMxjz3cpQbw3Ox4uolXpEuwVm5cB0C/3pmFh6ee6feY9m6Tb+yNRv2oqikQt+HNnkvPDUdTyyYTO2PiejyRK1cvZ19vPrHDvfNDFXhrgDqHSY3q2kBduRIsK/QcL3DlAwTMWKMWaSfz2n9a6JcUCRHmVyBMnk1lErDrSC3KEqJEV7i6SX+LkvYO2QLZifhtecMt3xweXlNvzUb92St3bgXarV4zuPteOeVefQAt4np9GS9s2Iz+/zrPR3uWzxIhTgPSojJzY7KeOzM4VHaaJg4QMkwIZ1TKBROJWW1ijJ5NUrLq1Amr0a5vBqavytQJlegorJW8OMGOjK8LqLFOo7JeKw+L9yDdXfdMQSrP3rSKGJa+rkctnbjXvysZSpWMbO3s8G7/3oI99413CjOGem+Dk/Y3MeXs8PHLnT4CytHt8LFRqd1IiaotEGzCMdRmWF6hykZJkQYjDGLy1lFrfLKGsgraiCvvP5z/c+aJFqBuvqmbr/nwkgVRovkuZPCeg7LBZyPOH5wGLZ+8bLRxbWjJy6yn385iZ9ST6Ku3niH7ehbZLg/XntuNuIHhxndOSPa3XTSZi/6gP1+4mKHhZcnKOFuR7dNyI32FfLYkcMLOil9d1EyTIj+Mca4qznF6rMXcvHc6190WTbEieHVOHH0El9TAivSLQSbZSc02BtrPl5SEODr4S/IG+pAcWnlwz/tPb7m59STOJ8pNXR1DIbnOTyxYDKe+8c0aotM2A0n77nXv2BbfzzcYcGHIlQY5yOOb/qke/JqOezMleBMuf5jwH2TR2J+ygRKhgkxoLgJS1iZvLrLMouiVBjhJY624/PzEsHulllaWmDr2pcQO8h0VtdM3X+a7Uw9jp9TxTW0YvyYaDw+fzKGRIeYzLkiHWs/gV09VBfnocbiQYZ7QIMYn5/zeOzMlaBZzx+LsSMHYv6sCRibQFOrEWJIX2xMZW9++G2XZfq7MLw4RBy9xEIv0PHFqqUYPybGJONcXkEZO3j0HA7+fg4Hj54zdHV0xsvTFYsXTqaH6cyIBQCkn8tmUx58q8MC9pZAvCcNmSAamVWaadYyq/QbAwb0D8D8lCTcf/dIbv1nej00IaQD/1u/W2uZRJHcXTxSLGxC/OEbD5tsQgwAgX4e7XU3xwR5XMJAJI2Lxaz7xlpyHCeOb30iwQHAvMUfMW0fVg87IM5TheGeTHRLdBKgWQXsNMAiHF6erpifMgGPPniXyTYQhJibru4sthngxvCsCOYlzqzisOKMBC1qYULUS0tn4LGHJpllvGtLkE+fzcLZC7koKJIbukrd1j/UF8mJg5E8LhYRYf5meX4IwH216Vf2+vsbe/RLQz0YIl3VCHRkCHCkBNncnSnXjB3O0+MiHNbWlliQkoQFsybEurs7p+vtwIQQrbozlnhJtBKx7ubdPlQ0aRLi4gZhYuNjD03ES0sfEE3ClZ1bwtLP5yD9fA4yLuTi4uV8Q1epXV8PF8QO6oeocH9EhvtjzIgBojkvYsadOHOFfb35t1uec9DGgiHAQZMcu9sxONsArtaAiw2Dg5XAtSV6ZahFOKbfOwrzZ01AZDh9GyfE2HSnlzimjxpLY8z/OZQVZyQ4WyFMfBw/JgZfrFoq+ph37FQmy84rQXZuCbLzZMjOK0FpuUKnx3RxcoCfrzsGRQZiSHQIovoHIMjfU/TnQozaT/r2XX+w9Vt+Q/q5HMHeXMJpkmZbC8BWAthaAjy09xxY8IC1BLC2uP7KM9hIAGsLDjYSBmsLwIbXvHekq3n3RBiKIRbhSBw1CPNTkjB6eBQFI0KMEGOMi09aqtbWS/xMrBID3cw7Nv/3nATHS4VJiAP8PHBo5wcU97qQfi6HZeUWo7BYjuaWVjQ3t2peW5S4dq2lfZtS1fWXMX8fd/j7usPPxx3+Pu4YGEkzGJE/3fRh+M+XP7N1m36FtqBnDMKd1XhpqPn3RuiTIRbhGBQVhPmzJmDqpBEUnAgxYt3pJR7qwfCPQeY9lnjNBQl+LxEuRkrT19EDK/7DbAAAEtVJREFUW4QYAYu/b3hiwWROWliWv3bDXr8NW/cbok7EQPS9CIePlxsWpCRh4ZxkbufG1/RyTELIrSkurXx46tw3tZZL9DXvjop1l4RNiH/btgyUEBNiHG5KigGgbfWcY6cy2dqNqfjtED3nZM70vQiHrY0V5qck4dG5452dnZ2N/5YEIQSrv9q1RtsdxOF91YhwMd9hExsvS3CgSLiEePOaFxES5E13yAgxEh0mxW2GD+3PAcCJ05fZ9l1/4Mfdx9B0rUU/NeuGoR7mG3z1Rd+LcDwwZTTmpyShf6gv98JT+jkmIeT2HDp6jj24+COt5cx5XuJdeRL8WiBcQvz2yw+2t7GEEOPQZVLcJn5wOAcAeQWl7Mfdx5CWnoVTGVfR3Nyq29ppEWbGPRK6drGSw095+luEY8KYGDyUMgEJ8ZHcB6/r5ZCEEIH8d532hTpGeasR6myeMfmYjMfWLOES4vmzJmDujDsoISbEyNzWRfn7iYvsVPpVZOeVICdPhhypDC0tPR8a5ebaG27ODnBz7Q1XFwd49HFGeIgPKqpqsWzllg5/J95TjScGmvfYNV0oa+KwJ48X9BZgV+JiwzBv5nhMToqjBoAQE7R2w1721kebtJZ7LV6JoN7mlxRnVnF4L61b/UfdMmpYJDaufp7iISFGSPALs6CofEuxrHJGR/tsba1hZ2sNW2vrVT7ers929XDBoT/Oswef+LDDfVY8w6txKvjTwiHdxhiwJ1+CPVIetXoYARMe4ouHZo3HrPvGUvAnxETlFZSy6QuWQV5R02W5CX5qzAk3v06KDDmPlenCLd8cMyAYP274N8VEQoyUUV6cCoXCKXrc0k5n654arMaUYPMLwLqSVs5jTx6P7Brdn27vvq6YN3M8Fs2baJSfLUJI97345pds07ZDXZZxs2V4ZagSLjZ6qpSenCzj8dlZ4RLi8BBfpH73NsVFQoyYcPeEBJJfUP579LilIzvbH+fJKCHupoI6DnukPP7Qw5zDjg52mDdzPBamJNKMEoSYgV8PpbOHl3ystdzkQLXZJcS/l3BYc0G4hDjAz4MSYkJMgFElxd98f4CNvue5TveHO6uxmMYRa9WkAvbk8dgj5dGi1n0cnjdzPOY9cAeCA724Zxfr/HCEED1Y/dUurWWi+zCMM7MZJ/YX8lifKVxC3NfDhVarI8REGM2F+vZHm9iaDXs73T/GW40FkZQQa/N7CYc9UgsU1ev2OI4Odph2TwKm3Z2AyHB/o/kcEUJu38r/bmcf/6/rlesA4OWhSoSZ0YwTe/J5bL4iXELs3LsXMg59RvGREBNhFBfrP1/9nP3w89FO988KVeHOAPPqjRBaupzDwSIJMuS6PaU+Xm6aZHjyqFW+Pm5LdXowQojeHT1xkaUs+kBruUmBaswIMZ+Oih25EmzLFm6omY21Fa6cWGMUbSwhpHsMesGmZWSxZSs34/TZ7E7LPBShMrvbc0I6VcbjUDGP8xW6PZURYX6YdncCFs5JpiBPiBmbPv8ddjL9apdlvO0ZXolTwt5ST5XSsS8uSnC4WNhnL/Iz1lOsJMTEGOyi3fjdfrZs5RY0NF7rtMyjA1QY2ZcS4o6cKOVxsIjHJR0vvjFsSDim3Z2A6feOogBPiJn78LMf2CdrdmotZy6xWanm8F6aBFnVwoU3p972OHvoPxQvCTFBBrlwX357Hfvm+wOd7vfuxTCtnxqx7qYfdIV2VMbjUBGPKwrdnrqxIwci5f6xSE4cTMGdEBE4fOwCm/v4cq3l4jzUWDzI9IdNFNVzeO+UBeoEXJg1wNcdh35aTjGTEBOl14u3O8MlxvqocX8/NRytzOfhDSEcLtYkw7qea3hQVBAemjke900eSYGdEBG5b95brKvYDABWPPBKvBIBDqYdn4WegxgAogcEYwctzEGISdPbBaxtuISzNcP9/dQY5U29w20aW4HjpTwOF/PIq9XtqfL3cce8WeOxcDaNGSZEbN5btZX9txtTsE0NVmFKsGnH6B25PLZlC5sQjx05EOs/e4ZiJyEmTi8XsbbhEkM9GKb1U8HT3rR7H4SSX8vheCmH46USVHU+5FoQjg52eGjmePzzifssu1p2mxBing4ePcfmLf5Ia7lAR83DdZa6XwtIJ2pbgE1XJIIvZjRl4nCsWvYYJcSEmAGdXsjahks4WAH3BKmQ5GfaPQ9CSSvjcbyUx6ky/cTXuTMSMX9WEoID+1JAJ0Sk7p37Jss4n6O13D8GKTHUwzQ7Li5Vcdh0RYKCOmFD3UMzx+ONF+dS/CTETOjsYv7hp9/Zv97d0OlwiRFeDPcEqdDXzjSDrFCqm6/3Cst0P0SizeTkeMyfNQFDokMomBMiYstWbmb/W79Ha7kEL4ZHokzzRtIv+RJsusJD6K6XpY9NwdOPTaUYSogZ0ckF/eU3qeyN5d92uK+vHcPdQSqM9BJ3MpxVzeF4KY/jMh71Aj793JXJyXG4b9JI3DE6mgI5ISK373AGW/DUSq3lelkCr8Qp4WViw9salZrhEkLPPwwAK95+FPfTw8iEmB3BL+quHthI8lPj7iAVHK2EPqppaGwF0sp5pJVxOFuhn4F5zr17YerkEZg6aQQGRgRSECeEAADuTnmdnbuUp7Xc7DA1kvxNawq2Kwoem6/yyBV4th4Jz2PLFy9haEwoxVJCzJCgF/a0+e+wUx2shOTdi+G+fmoMEem8w5eqNInw6TIe1S36OWZYPx9MmTgcU+8aOa5vX+eD+jkqIcQUvPXht2ztxlSt5WLd1VgSbVoJ8f5CHpuu8GhRC5u3Bvp5YOvaV0Lc3Xt3PW8dIcRkCRY1/KPndXhvbZyPGveJcN5hedOfvcLZ1fp7XDshPhJTJg3H9HtoBTpCyM1+OXiGPbJ0ldZydhbAS0OV8DOROYmrmjhsy+VxRAfDJUaPGIAN/3mWYiohZk6Qizw28UlWWVV7wzY3W03vsDksBdoTaWU80so5pJXxaNXjP33qpBG4b9IIjB4xgAI3IaRTdz3wL3bpSoHWcqY0bOKYjMf2bB5lTcKHvznTE/HOK/MorhIiArd9oSdNe5ldyS6+YZuDJfDCECV8TaSH4XaUNQKXKnlcreZwRcGjUsfzCv9V9IAgJI8bjKSxsegX5EVBmxDSpX+/t4Gt3/yb1nKmMmyitpnDD7k8Dhbq5m7cy08/gEXzJlJsJUQkbutiT3n0fXb05KWbtv/vjlbYCLtgkFE5V8HhXAWPqwoO+QLPe6mNl6crksfFImlcLEbERVCwJoR0y7afj7KnX/1cazlTGTZxsozH9mwJShqEf++gAE+88OR03HnHEIqxhIjILV/wL7zxJdu8/dBN21+NUyLEybiDaU80KoH8Wh7SOk2P8KUqDko9jwixsJC0J8JTJo6gIE0I6ZHc/FI2e9EHKCmt1FrW2IdNNLQC27N5/Fqom56XKROH4/mnpj/i7em6VicHIIQYrVtKsI6evMRSHn3/pu3udgzLE0xzgndAcytOWqdZZjm/loO0noO80XA56NCYUCRpkuGCAF8Pf4NVhBBi0p547lO269dTWssZ+7CJ46U8duXxgq9MBwDW1pZ44cnpWDgnmToeCBEpi1v5pa+++aXD7RITCCXNKqC8kYO8SfNa3sShvJFDUT2gaDbsP8DRwQ7DhoRj2OBwDBsSjshwf+77rwxaJUKIiVuzYS97+6NNWsvZWQBTg43zwei8Wg57pDxOlOpm7PDQmFA8/+Q0xMWGmUArRgjRlR4HgJKyiqnDk5/Z1tn+KcEq8AB4HuA5DhwAngN4MIBD+74/twM8pxluwXMceI6B47j2fbj+u21/5zhNOYBByTi0qgGVmkGp1gxrUKmBVnBQqhlUakCp5lDeiOvJL1DTYlwxLyLMrz0RTk4cbFyVI4SYtFPpV1nKovfR0qL9Dp4xDptoVHLYI+WwWyrR2bC1BbOT8Npzsyn2EkJ63lO8/9C5ThNiAPgxx4yfsBNAR73Be7YYulaEEHO0/NMfupUQx7obX0L8e4kmGS6u102+6uXpguefnI6pk+g5DUKIRo+TYnlVjS7qYbZcXRwxNDoEgyKDMCgqCCPjI7jzR4A1hq4YIcSsvfvxFrZ63W6t5Yxt2ERWNYfdUh5nynW36FFy4mC88OR0BAf2pYSYENLulsYUk8719XBBXGwo4mLCMCgqCAMiArgz+w1dK0KImOz5LY099uwn3So7NVhtFNOvXVHwOFLC6WRFujaODnZYumgKFs5J5j5f8ZTOjkMIMU09ToqjwmkShDaODnYID/FBaLAPoqOCEBcTdtTfzz3heKqha0YIESuZTDF29uM3zw7UEWMYNnGuQpMInyzTXTIMAEnjYrF00RREhvtT7zAhpEM9ToqD/Pvqoh5GTcLzCAvxQVg/zU94iA9C+/k84u3puvb8EUPXjhBC/rT8P98fyJHKtJZzsGK4z4DDJk6W8ThSzONchW5z1L/2Dq9ZuUSnxyKEmLZbikZ5BWVMWlAKaWE5CorKUSyrRLGsAsUllVDU1AtdR51zcXaARx8neLq7wKOPU/uPex9nBPi5IyTIm3oWCCFGb8PWfezVZV93q+zCCBVG++g/KT5SrBkmcUWh255hgHqHCSE9o5NAcTWnmBXLKlAsq0RpuQJ19Y2oq2tCbX2T5s9tr3VNqKtvglIl7O07WxsruDg7wNXZEc5OveDq7AAXF0e4OPVq3+7q4gCPPs4v+3i5vSvowQkhxAAuZEpZyqIPUFOrfd3jRB815kXob9hEWROHEzLNPMNFeug3cXVxxOIFk2khDkJIj+jkQbvQ4J73rJaXK2Jq6hvP1NU3oaVVCQsJDwuJBBKJBBYWvOZVwkPCS45aWEnWWfL86eZmp8u+vlyTLv4NhBBiSj745PtuJcRBvRmmh+onIb5QweF4GY8TMh4teuqUnjdzPBbMTqJVQAkhPUbfogkhxMStXL2dfbz6R63lOA54PlaJCFfdzTbR0MrheCmH4zIeV6v118QkJw7GwjnJiKdV6Qght4iCByGEmLCDR8+xeYs/6lbZGSEqTArUTZdtbg2HE2U8Tsg4KJr117REDwjGwpQk3HPXMGrPCCG3hYIIIYSYsEmz/s0uZOZrLRfnqcbigcIOm8iv5XC2gsdZOYfsGv02J309nLFw9p145ME7qR0jhAiCFu8ghBAT9eqyr9mGrfu0lutjxzCtnzA9xMX1HM5WcMiQ87ii0H8+6uLkgNnTx+HB6Ymx7u7O6XqvACHEbNE3bEIIMUE//HyU/fPVz7tV9omBKsR73npSXNrI4Zycx9kK4EKl7qdS64i9vQ3mTk/E7Gnjtvr5uD9gkEoQQswaJcWEEGJicqUyNvuxD1BSWqW17MQAFR4I7XlCfKGSwxUFh8sKHlcN0CPcxsrKErOnjcPc6YkIDuxLbRYhRGcowBBCiIl5/NlP2e7fTmktF+GqxtMxKlh1o3O38hpwroLHxUrNsIjaFgEqepvmTE/EnOnj0D/Uj9oqQojOUaAhhBAT8vnXe9g7KzZrLWdrwfDPWBVCnTqefu2aEpDWasYHn6/kUVhnHM2BRx8nTJ00AlMmDqdkmBCiVxRwCCHERJxKv8pSFr2Plhal1rJzwlWY4KcZNtGWAEvrOOTVaF5LG4wr/A+MCMDUSSMwPyXJkuM47f9AQggRmHFFRUIIIZ2asfBdduL0Za3lErwYfB3URpsA/9WEsbGYMnE4JifFGW8lCSGiQEGIEEJMwLsfb2Gr1+02dDUE4ePlhjtGR+Pu5HgMjQmldogQYhQoGBFCiJHbuy+NLXrmE0NX47Y49+6FO8ZE447R0Zg4fii1PYQQo0OLdxBCiBErL6/pN2vRe4auxi2xtLTA+NGaRHjaPQk8x3GsewtSE0KI/tG3dUIIMWLPvraWfbfjiKGr0SNjRgxA4qhBuGNUzCpfH7elhq4PIYR0ByXFhBBipDZ+t5+98s56Q1ejW4YP7Y/EUYOQOGoQ+gV6UdtCCDE5FLgIIcQIXbpSwFIefR+KmnpDV6VTQ6JDkDhqEMYlDEREmD+1J4QQk0ZjigkhxAh9/vUeo0uILS0tEB8bhiExIRiXMAjRUUHcD+sMXStCCBEGfbMnhBAjc+xUJpv5iHE8XDcwIhBDY0MxNDoUUWGD7Xx9uSZD14kQQnSBeooJIYS06+vpgtHDojA0JhRDYkIR6OfB/fStoWtFCCG6Rz3FhBBihMZNeYHlSkt1fhxLSwuMGhaJUcOjMGRQCAZGBlK7QAgRJQp+hBBihPYdzmDv/99WXMkuFvy9B0YEYtTwKCTER2BEXAS1A4QQAkqKCSHEqH26difbvusYsvNKbun37e1s4OvdB4MiAzFqWCQmJ8fzHMcxgatJCCEmj5JiQggxATl5MpaWcRW5BWWorW1ATW0DamobYWkpgb29DRzsbWFvb4Ne9rbw8+4Df18PBPu7OTs7O1cbuu6EEGIK/h/hKfvbywWaYAAAAABJRU5ErkJggg==;" vertex="1" parent="0Yolceih9RA4fNprkh5m-1">
          <mxGeometry x="36.36" y="207.5" width="75.28" height="50" as="geometry" />
        </mxCell>
        <mxCell id="0Yolceih9RA4fNprkh5m-15" value="kafka" style="shape=image;verticalLabelPosition=bottom;labelBackgroundColor=default;verticalAlign=top;aspect=fixed;imageAspect=0;image=data:image/png,iVBORw0KGgoAAAANSUhEUgAAACAAAAAzCAYAAAD2OArBAAAAAXNSR0IArs4c6QAACUNJREFUWIXFWWtspFUZft73fDO9jdvLll1cp52ZzuzFCoak6wUxSwmISPAG8R5NgIAJMWJiQKIJYPxBCAmKRk0U1oQE4xoMi5fgCgmLCqJhSURT6NLpXLbZhd217TZttzvznffxx/e1zLbT7rLb6EmafD3zvOc853znfc7zzghWael0ui2hietU7GpR7aahDPonitXqCwC4WtzbbdKss5DNfhKQvSICkktAEUFodlQCt7NYLB5aDwK6vGNrNnujqttLYsHMphcnNxJmNqmQTWqs5nK5zLoTyOfzfSJut/d+BmCrqnbRuM+IByB4XVR7CJs1M6jxlWYLOC8CCP39RgPIpIggBC8pVsvXFCulO4vl8jbzdruqSwkw6VQ35PpyV60bgWEgAPgZEgvqXKuAN5ZKpX82govV8g+9tz9DpMdIqMOX1o1AdWCgQ0QDwEIACEWeahoh/NnS4aQNrhuBRCJhyz5rXSWgs+G/U+tGYHR0dI6044C0kwS8fbMJ3hnkHjMzFQGBv58vAdfwzI3d3R2qegXJaefc5d2dXfPvfNeWl44dO2b9/f3dF3R27xWV9wowpera6Ou3Ts3MHF1t8Fwut7n7Hd1DvZ1dOzZ2dyZzhcKJI0eOnLbTpwlROp1uaw0S85H4cFbVpcwMAA6LyJaIJidFtce87StWy9esMnFGzR5XdTsb+80MArllrFJ6eLHvtDScmJg46QQ7VBUimoqFyABsodkCabOi2mPGN1pS7Z9oNvlA/8CHE6JlEd1pZtNmNm9mtXismjr9eSGT+V1TAgAwWiqNmspmEs+raleMqYlqq4imvPHBvlymb2RkpLY8Np/Pb3IOfwm9r5Gcj+PbAdbi56T34XF1wXUD/dl7VryC5W17JpMLIS+LSBfB356s1b5w+PDh+dXwhWx2DyCfJW1WRFMgbkl2tD06MjLi8/l8DmH4rIimSZtVdalTPuxZU0pHK5USIG+qCMTw4lqTp9Pptmhyzqu6FI23j1VKD8c75YvF4pgXubgxJhD52Jm0XAgGBABtrguLLZFIbBIRADSSaDk5t3s5plwuTxvxiIimSEKAS894mQgQAIABybVwJNviCAWAWmdnvRlOhccW3zuhbUEzUKFQaLF6/QZQvgqgL0offq2QyfUR9pNipfLC8pgwDCtBkABAE1H4U3YxgJeWr4fEVwiaqqqQr604hAP9/VequmcW9Z6kATRAAhGBRqakSJXLSqXSm2/FDVwlYk+DXIBIK4AZSQSFsbGxY0sLy2bvE9G7aDapqj012rtPI1DIZG5TF/zYe28A4wMnqZiMAZgFqCKaEhH4em2bBcGxwPCkON1lZoiwNivQFAQw4hGQh0Rwo6pmzGxGRDaQfLlYKQ9JA7thVfdsZEbQKpCkqMDMZgA5AnC7qsLMDJAawNbo0MU0RWDmjwPyb1UdNrP5+HWkos8MAkxCpAcAauZ7qtXqlALA0NBQgsSz0colKSJJwibow/cUK+XuYqW0o6WjvcWbv0FEFGArwJCkkawBgBkf6Ort3VKslK+A+btVtV3VpQCAJFQEqq7HyFJQr/VWq9UpIBaigUzmeqfuNw3bU+3q3Vg4cODAipM8kE5v1SBxkLQQRKjOtdbrNlyeKD/XiMvn85tQ95+HcBiUdiheE3LPWKXyIhpcdUwg+wcVuXZRoRTcMVoqjS6ffGnw/uyd6vR+M5tW1S6Gds3YofK+1fBrNY3/dkY3oKTM+MZoqXRwrSBn4WMN8YCg6a14VgSGARXIBgAWK1kJZyg8pKNjJq4XApKANLqkt0lgP2AEZwAoSRDI4wyX1Nzc3IY4A0IRAYgT50wAgCn4j3jAGae6aXsut22toGQQfDl+jNwN8cdzJRBE8djtRK7zkfIhJP80NDS0ehZA7jPzIRhdUCGxsByXz+c30fsvimEYwhSAVwX4ZdMsGBoaSkwf/09sMGRBBK2kTQj50bFqdRSADQ4OJhbm5j6uoo/Hli2ML55QRJIkHujq7fnOgQMH6oVs9l4RvQfAUm0JYFHGS0FL8v0HDx48vkQAALLp7OXJpNu/Ugn9LESOgNh6NkpIyohzusvMz0b9Z6GEAFCeKD9nxtuccxsABFEN6GcBSQlkKwCLZJnzImhVVVhY3xaC3aT9NabRqyq7zPxsNLGmSHvYe7uXQElUe0jOAEBC9JnTdmDpHff3X6ninhE9/9vQtSTzi1sNnMVtuAQsFFoYhp8GcQuAYQAKcJbQvQL7aTM/8Jalj9TUh3jf+KHxFX4gn8lOALhQVdWMdzQ1JGNjY6cA/ArAnnwmW1LVjKf9aLxc+nYzPAAEQZCJrmJRktAW968mMIrgUYHcFWvOjrPwhAgRbUFTi7UEFDkZz2EAkDxxItEMZ5QLFvNCYCfPRMAEEgoA2Mpcb2z1ev1ofJ+oiOBUW8dNyzEDAwOdKrg5su0CAn9bk8CObDYLcLORoOKDW7ZsaV8NOzExcZLgr0Wk3czPispDhUzm5sHBwSQAV+jry4u3V+K1GwCE5FNND2Eul9usxidU9dK4NqyJSOSKjT9ID2Tv2L9/f7g8rlAoXCDejppZDUCoqu1x/PxbzzzuXNBLH979eqXyvRUEstnsjoToq3EKTgPYIIASXIgGdSlvdrS1o715eZbJfMhp8LzRFuOTiCR/HkC7cy7pQ/9ksVr+FLCsNkyn020B5FUzQ5ROUW1IcEIkqg1pNulUN9Xm53/fbPeKlcoLoTBD8mVV7YqsmSYXa0Oav2lx8hUEWoPgW7G8TkelOe/s6t2YLFYq/SHYDePTEOmh2aSK+0i+r++iZiTGx8erxUp5KAQvDEPuCj2vhvnBrt6NydfL5V80YhtfgeYzmTcB6RERJfhQsVz+xrKxdSCTPSJAr4qoJx4cr5SafZNy1m1pB7Zv394hor2R1gtM5PtN8Kbgd1VVLartPnA+k59GoF6vL0/JpnlvaHQ/1rJuBPrHx+dICwENACAgr20aQbmVJEQEEB1ZNwL7gVCge0TQat4vELI7m81e0gjO92e/7pzuAjmpIjCPx1YO+fbaaTqQz+f7nKHqzc8A2KCqMG/7IPIKweudan7RIwCYLlbKG7HoC8+xNX5Nh6mpqZmurs5K4NznjFggOSsqF6ngMgA9ICcF2qmqoNNtU1NT5+yGF9v//feCVf3//+oXk/8C+bT/MLl/QHEAAAAASUVORK5CYII=;" vertex="1" parent="0Yolceih9RA4fNprkh5m-1">
          <mxGeometry x="523.32" y="192.5" width="31.37" height="50" as="geometry" />
        </mxCell>
        <mxCell id="0Yolceih9RA4fNprkh5m-16" style="edgeStyle=orthogonalEdgeStyle;rounded=0;orthogonalLoop=1;jettySize=auto;html=1;entryX=0.5;entryY=0;entryDx=0;entryDy=0;" edge="1" parent="0Yolceih9RA4fNprkh5m-1" source="0Yolceih9RA4fNprkh5m-18" target="0Yolceih9RA4fNprkh5m-19">
          <mxGeometry relative="1" as="geometry" />
        </mxCell>
        <mxCell id="0Yolceih9RA4fNprkh5m-17" value="" style="edgeStyle=orthogonalEdgeStyle;rounded=0;orthogonalLoop=1;jettySize=auto;html=1;" edge="1" parent="0Yolceih9RA4fNprkh5m-1" source="0Yolceih9RA4fNprkh5m-18" target="0Yolceih9RA4fNprkh5m-19">
          <mxGeometry relative="1" as="geometry" />
        </mxCell>
        <mxCell id="0Yolceih9RA4fNprkh5m-18" value="minio-starter" style="rounded=1;whiteSpace=wrap;html=1;" vertex="1" parent="0Yolceih9RA4fNprkh5m-1">
          <mxGeometry x="638.84" y="70" width="120" height="60" as="geometry" />
        </mxCell>
        <mxCell id="0Yolceih9RA4fNprkh5m-19" value="" style="shape=image;verticalLabelPosition=bottom;labelBackgroundColor=default;verticalAlign=top;aspect=fixed;imageAspect=0;image=https://min.io/resources/img/logo.svg;" vertex="1" parent="0Yolceih9RA4fNprkh5m-1">
          <mxGeometry x="638.84" y="223.62" width="118.33" height="17.75" as="geometry" />
        </mxCell>
        <mxCell id="0Yolceih9RA4fNprkh5m-20" value="" style="shape=image;verticalLabelPosition=bottom;labelBackgroundColor=default;verticalAlign=top;aspect=fixed;imageAspect=0;image=data:image/png,iVBORw0KGgoAAAANSUhEUgAAAG8AAAA5CAYAAAA4EnWKAAAAAXNSR0IArs4c6QAAGOFJREFUeJztXHl4m8WZ/83o02nL8hVfsWXnsJ3gJNjI0hfFgZgjsCTkohhCWNhSnraQUiDb7qalZTl6LMeyHCWkaZcC2zYJDSSEQrJAKAbsOJIs4lyEOMQkdrBzGZ+SLOnTzP6hw7IsyZKTUPKU3/Mk/jTzznzzfb95Z95535kP+AaxQBIRMpvN6vPdkH941FZWpicjbzAY5GPJmEymsnj53xAbHyTGdZAsErwWRbEwPN9gMOgiywTS5SaTaVmU9Pzw3yaTqSxehwgQR8eqJ5LgZAgfVfmFBJPJtDTseknw2mAwyF1yeQ8ADoC65PIewthmg8GgNxgM+aIorhEo7Q3kh9dXJlDqsVqtW8PTZxuN99jt9q5wOcLYgvqWlt4YTaM+SXoSAIusH8CZ8N9NTU2usHbnh/8eC0Kigl83GAwGOeF8s9ls1gAAk6QtAKjZbFYxSXIC/l7MGHsXjIEDRoHSYwAA5n+notFo54T8ghAyH4ytBOcQOJ8Wdg+dIAhvEUm6K5gmiuJsMPbflubmmlhtE0XxQ71eP89qs41sLyGz7HZ7K+AfDdw+Hw3PVwA6AF2ja4yOhCblryGoKIofgrGYL3DcIGQrAVo45w8Gk/QlJcKBAwdkWq32KTC20mKzyerq6khHR8elu3btqg8vLopiAyHk5+HpBoNBLlD6gcVmmwuAGwwGQaDUY7HZQu/fZDQ+b7XZVsZrmtlsVodr5gWheVOnTlVmZ2RczSm9C4xdCyCkPeccnC/hwJKwlAPtR48+pk1J+REYAxWEQqPRWNJx9OhGQam8JryoKIoNhDGFKiWlIZgWIM7jcrtTAfDa2lqly+FwSYwVwK88XBTFNTKZ7KF4zQoMsYfD076u5NFLDYZcL6Uvc2A+EJiczhdh8VER+AcAYJJ0nAba09DQ0BNIDo0EXsbSd9XXS8AwcRJjBXv37nWZzeYMl8PRTQhZbbfbTwLgs43Ge7jPd3inxXI6VgNMJtNSn89nQcQc/XUaNmlNdXWpj9I/cs6N8QQ92mwAgKTRgcnkmKIvRJFOA9fxI/j02HEMqnTwaLMhKTTgghySRgcAkLmd8Ck1oXqIzwvNyTYo+05igsyHSZMno7enBwPOIXSfOpFAi6kZAMBYU+D3NRaL5R0gMF9S2ssJMfp8vj2U0jkUqCeAzctYrd1uHxKrq+8BITcGhtOoPVMUxTXw+Q5bmpufjsz7u5NnMpnKCPASODdH5nGZHF6NnwivRgefUhMiAgDMRVm4ZlIWrO/vQOPnJ+DIL4M7PQ8gBAABCAEPPiIJ/QfCGcA5AO6/ZgwKx5dIO7oH9956I1Ky89Dn5eg6dhSdXV042XEUpzqOwuseiv0ghGyVfL4VLpdLCs6NhPMFXs4PCJQ+DuAmAJAYm6DVantdDsd9AJ4YcDiUFRUVvk2bNvnCqwuSD6DJYrPVBBofTjD9u5BXW1srOJ3O6wjnWyLz3GkT4EnPQ7ZShmPpJQAATgg4lYFTAZdPLUBBpg7T87Og6/0C//XienTPugpnlJkAoeCEoCg9Be39LoAQLCjLx7bWSC3iAOcgHABnIQLV7gFM7zuC2ZkCqq9ZBofLiUGXB/2uIYADvadO4PMDu/HFZ5/C2R9rlRAHlBa5XK4etULxPAi5DZTq9Hq9I4I4Mtto/CEHngloaY3dbvchgjgA7Cud82prawWXy/WMy+FYGd5rSsovglqlQoM7BV5tFgBA238cMpUaLkUqJGUquExAlcaLl39wEwjxlzbeeT/a5twKAFhQlhciacG0ifitrQ0AsGKmfgR5M3N12Heyz6+VBABoaCKZkSHggFSItmNtuIwy6CurMeT2oqtvEAO9PRDkCqTn5KHq8mvh6O9Fq70pcSIpvQJAqVqp/BsAuL3ejNLS0nDiiMlkWkI43xJoz8dEEJZNLixkdrs9RJzBYMi32+0ngK/IYAknLZiWkVuACoOIKeXToFCp8PwrW+DOLYCkSoFPmYIuKsOVs0VsPRJa06LE2R4iDgAG8oa9U3P12SGSbp6px29tbdDrNLi2NC8ks3puOX7b3BaznfPzVbA4CoGMQvx+wyv4+SOV0MgEZAoqpGZkI69kClyDAxjs/RID3WeQoktH1eXXorOtFUdarOj6/HDMusHY34KXBFie6vORtra2kpqqKpekUPwsuM4EAHC+V+10zptQUeEKJ1esrr43fO47r+RFI23SjCqUVs1GZk4eUuQE6ZkZ6Ha60T7jajBBESrrBsc82ZcId3Xcsuif0NraisOHD6P9xCmYy0vwxrEBAMC+k31YPbccjzUcwoycNMzM1eHmmUWhsjX6bCwoy8djDYdCaTqVHH1DXuRp5KiamIWDn3wEyEsBABZvGjyOAShStBAogYdxEEKh0eqg0eqQUzQJkseD3tMnkJqRiYIpZXD09eLAzvdx9EBL3PfCgY1elQoCAInSSCv6PyTOH51QUcECxFGTybSYMFYSabTIEuQhWRCTybRU8ngOIGA5Trm4GjWLl6OkohIpunRkZGVBX1yMAn0xDh0/iY+6PSMqYHIVnJa3YZxTg4NnBnHrZC3uvNKEpT9+GK/t78AObyYuLp2Mu4xT0NjRjVMON9ZcV4WXWo7h3tmlcPsYbp5ZBKUgw7rmNvzlxtl4qeUomjt7oFPJcd/sUhzuHoR8qB+77l6IFbP0OOMF3ul0AgC8KTpclc6RnpMPHwfcUWxBKpNBrU1Dqi4DSk0KFCo1cvSTUHzRxfC6h9B7OgGLdTQKqEyW0t/be8XEgoL3CydOfFDO+UNNzc1vRQqec80zGAz5AqWdwSEgf1L5kUuuWjAlRZcOpVoDXXYudNm5SE9LRbqCghDgQPdg1Lr2yPOwJhvYn6HB0zdejpc3vwnZZd9C98k+AMCGfR2YmatD/e3zcNtmG9r7XHh5mX+V8f3qyaF61i26BHqdBo3t3ajRZ+O5hZV4vOEQ2vucKD3dBp3KH0C4/ao5+MmHf/QvQeSqUPl4Zh0hBAqVGln5hcjMK4BroB89p04gfUIeJpZO+5fGLRscIOTVJF5hORj7NQcASu9Xq9VP1PvXjQQR67xzSd4Il5VKo3l19qKbbsgpLJlCKEV6Th6y8guh0fpNfUpIaKGiVCoBeEZV2F88Cy++8AK2r30OAPBwcyeQU4Q1C6vQO+TFuuY23L9jP2bk+AkcknxQCWmj6pk/JRcuyYflM4pwp3Eyth8+gQ37OgAA3RLB4OAgNm7YgI/2HoQ0sXZU+URNckIoNGnpUGt10GVNgCol9WWZXGmwvfS81pWSsgrAI4nUw4G1PsZ+YbfZTtbV1QXWPSOJS6ZdcRFw1voXqpzvzSksfqR2+R2vUpkMaVk5yJ80FXKlakQZtYwgTeFvwLPbP8RrgbkrEqlfHsf+B27FR3sO4taG4WFo9dxy/Pvccuw72YfXDnTgwStmJPQwHX1OzHvxA8zI8c+JpWof/rr1Dfzp4Cn0F88aoXHv3TYPgiYVbh/Q4xn17hKCs6/3e0umT/h9XV2drKurK83j8dxEOF8bIbYdQBNlbJNSqz06YcIELwBs2rSJIQppQZwteSO0jRDy3anVNfVV8+YfVqemoaisAqqU1KgFVTJAJycgBNi+/zM8GmZIhCPP24cDD9yK1tZW3P3Wbtjdw+GuGn021iysRJFOE7VsNFiPdyNPqwYFYD9+BsLne/Hdxi64dbmjZD+4cyEAYMgH9I6TPACYXyAPvmdSV1dH29raqFqtThUEwRUkKhxjkRbEuIfN0NzGGMD5Xk5pnb64+EjlZVc8Vlh6EbSZ2ZArlDHLc+5vHQEwvSAXQHTypmr989Gvfve/+M/lSzGUWYiGTv+cV6PPwoB71LPHhakwC+98dgKFaRpMlw/huncOwF0wfZRcnrcvdM3GzxsA4P3PuerySWTIbDYXtB89elwgZK/kdj/e39//en19vTsglvRdxhWMnW003iNQ2umvgd6vTk0VrVbrZ+a6Ot1007wfZeZNjEscAEh8+KWUZGpjyk2W++fCN7NNuPWxddj7f5uxuDwfk3RqpKsUuChHF7NsLFwxORclqQLePnIKd9y4FAvK8qASRhreZZnD2iydJXmDSlCz2axmknQcAEDILMKYXS2XV4kGw7jDWslqHhFF8SMeHCYZMxSVlOzZtGkTB8BmzFl6I0nQ48b4yB59cSqwJ4rRqSYcfUN+7TppWISnLB+iaedK/PRnP0OfJxXdTg+yNIrRBePgzJdfYv3HR1DfQ7H/UFuo/nBcNcuvjRyAdJaqJ3N85mOMvReexgQh3WKxBENHwUBFUkiYvJCjlDEQYIvK4bgt3APAOSc7uqTIiTgmOAAPAxSBDr+gshx7Ysx7+071QSOXoSo/AysW3ovlYYvv8UCXokFd1VSc3GHFwe4vgJScEfmCz4srZ5WHRgffWWres/f9aPmowDFjTaIoNqrV6trAUiBpJKQmJpOpjHB+KFDge17GXop0lm47zJXyFCmO23005BTIVPiNlkG3F8v+sB0eMnL4+n5aD1Z/ZwUmP719dHlnL/68pBJXGmYlc1s07z8IwnyYXDQRHrcbp10erHjxbXyh8RstZh3w6M3nxlhp22s/84cHfpgdT4YA9+6y2X6DJLVvTM2bbTTewzl/JtwoiWYNqXXIkJLsPxIDvAHtS1XKsWJmEV7a3zlcp8eBa+ZUQ6eS47mFVfjJu3sx6PG7+mbm6vCbBfNQnJ64pRnEYZ6Ku7fthtz5MVI6WzFX7cRL374FO9p78OQnffjpEn+AnANwnYXaDTkGsf7Rnx0GEJU8gfNpjc3NwT0tOgCIs6lpFOJqniiKa8DYSgCPutzuX5aXlw9Fxp2CeLfDWwsZ3k/0xkFoBAKt3N+QSO17+1uzUF1aEpJtaD+D2zbb8P3qyZiVq8P6fe0oSVXgF1dXgnM+wmkdDQMuN7RqvyG1YV8H7n5rdygv7dge3JJPccfKH8IhpADwd6weDx+3tfm71d870v7p/imx8jkhy6xW6+vjqz2OtSmKYgMYW8kJqdSXlPw8HnEAgBRhd8y8OBjycUiBwTdVKcfDV/mHQPWZYyOIA/yRA0OmAuua2/DPr1nR0efCg1fORGdnJxyu2CO20+nfs9Pj8aH2xQ+wrrkNC8vy8NzCqpBMf/HF+BMrChHHATil8S8TNj/7S8QjDpyvIpxvGWvjbjxEI4+KothAOP8UlOqKi4v3b9q0aVSkNxLzM0lfvPxYYBwYlIZ795zSEszN8m9deOvNN0fIfmy3o/7Yl+gb8kKnkmPTDUa4h4bw099vRKpGjX63F590dY8oM+Byo+X0INY1+0NEC0rzcP+O/Zj01HZsO9yFBWXDIaNfLRwO5rt9/o41Hvxtwwv4+L1tcWUszc1PB3aPVYyXwBHjTHDDjEySSnbu3t0RSE5418+7X3gfAsGDY0uOboROQaAK2CqDbi9uf+mvIM3v4OaZRcjPz8dNy5dj6S/WoCXzIgDAC9fNwtIZJVj8rw9i7vUr8O9zy7F4/U6snluO/sDC/drSPNz91m48t7AKWY++gQVleVizsAqL1+/0B2TDcPfMPNTVGPwPzP1Gimcc+522vfAMdr7xCgDAYrOFLwGIwWDIk1H6AAHuAqVmi8WyK5BHTSaTaLVam5K514hNnwIhP7DYbDRAHEcSxAFAT6/w62Tkg+AA+r0c3rDh88VvL4Kv6ir8zxk1Hm84hFc2bsT8S/3W9iW5qbikKAdr/rgRTRkVqNFnY11zGxrbz0CnkmP9vna81erfu9re58LGfR2hSPvi9TtxZ1jEAQDumzVMHAcwKCFp4oYcg9j87C9DxAHDRkjwMe12e5fVZlspMabgnOeHaRyzWq1NyZ6noOF/w4J9CfnWInFjBfFQCCVjS45GsLe7A4NzqlKOl+9YguzcPHRPvwxP247iJ4suxUQ2iIvz0pFBfXh8fw+0Wi10KnkoyKrXqbGt9QQa24eHz8caDmFmwBOz72Qf7n9vP/Q6DeRMwgOXTcOyOQHiONDvAZxJulSGHIP4/U/v7I0cKl1yeU+0Ayt2u91rtVq3WK3Ww+FnEwKWZsL+5kjBqKGHZPHOce+VhGLHeMrKCJCuIJCHzcZPv7YNWzuHsFrPcOPSRQCA3/55E9b1Z2BBWR46+lyhYfDXV83A/Tv2AwA++E4tFq9vRN+Qd8QeFwAo1sjw+OIa5KX7XXOc+zXOKfGkXsDBXR9i01MP93qGXDG1RmKsIPysw7nCeds9tq2LT5Bz6dR4ylICaOX+OTDYwM+OtWPtG+/i6VsXYHpJIYpXP4/BjMLQVgbAv61Br9OEiLzTODm0ESkop6bAd0xlWFFVGvJZ+jgw4OUYimuSjcSQYxCvPvNL6VPLhzHXymFzHjWbzcpkDpEkgvO69e8hzmlNl5TEKxkGAaCSEaTK/doYRE9vD8rzsvDEX97EHzpH6ohSoHBLw5NVTooSpxx+p315ViqWVBSjdspEpCj9IxmH36oc9PKEnc9DjkE0bt1wouH19ZLX7R5xbIwDawkQOpQiMaaw2+3JhT2SAIk8vHA+8F6n504GkrDfMxwK6tdCeZRFTWfvALbu2o0ONwcTlOjoc4IQoChNAw7gopw0TM3SYXpuJjJSRh574xxwBohLhLchxyA+2vLnAzu3bkz1etzF0WTUXm9GfUtLr8lofD5gUT5vsVh+MI7HTggEGLY0IZPtkiTpoFardcRwllKDwRCM32hkMpk4ojJCfgxgD+f83WCaz+ezaLXa09d898da0+VX3zReEuXUH31Xyca/VdgfIfAvvt0sMc9Jz6kuNL6+4enmd95YJHk9Ixfdw+QQk9G4hlDKg2SJ1dX3gZCnzqf2jTJYaisrdU6F4nLC+b8BGLUF/WyRVai/t+rSa2aVi3PvyJ9UmnR5Ar8vVEEJFBQQSGB3exRw+K1YL/Ob/m4fTzhC0PjWK4/a335z4NSxI7+KJzfimJbJtMzn870ZJEusrr4PMtkNFotlbmJ3TQ7J9OFIWR4t3Ww2q6jXq5cI+XSsCtWp2sbiGVVdFeJlN5TMqEJGTv5YRUY0hgaIi/UQHMMR+7G07PSJ9keat79+pLV5V3Z3Z8ctjPkuiahrLeG8FYQ8FZ5OBUETebo14hTtMkJIV9iC/JzhvBkstZWV6YGjxcPgfBWn9BjhfHO0MnKl8njBlOm79OUVmWXVc65Iz8lLitBE4XL0v3L0wJ6drR83HTqy20Z7T5/4FvP57ohXxmKzyRBwWphMpmWhZ4g+r1GEOThqqqvLG5ubDyNJp8dYOG/k1VRXlwe1LxD6CEVag/NB8DcH1oKQd8H5/HBrLYjsgonPyzVaT+Hk0i806Vmp+vKZRBBk5YTKZhBKp+SVTD2mStW2gZNO12Bfb0frJyDM1+fjrO9k26GOzmOfOQe6TzpPd3RMc7tcVZzzUfcYC5ERgPDOGU5sLJhMJnOy7q+xcL7II6LRyDgh11ut1lEngWYbjfdw4BlwvsrS3PwMwhwDgb0ezvPUrjHBCZkT9pKpyWQSCec7gZHzGzDsC040tBPQwOjbBcaB80KeKIoNarf7uliBRdFo5JHaGI7QzrTzDCoIGp/PVxkkB4iuRUGSorU5mBfhhI4Jg8EgP1fW5zn/lEdNdXW5xWKZG4s4g8GQLzGmiNcDVYSEtj0LnE9Te70ZoUzOV434Db+2RKQ1SYwpLDYbsdhsBJyvCskCoaWK0uVSWq3WJioIoXC82Wwete3Nbrd7qSBoJJnshWh5AufTZhuNP4z1PJHyicglgnNNHk1gWDgz1gME5somi81GG5ubD4V1hKZRx3s5X2W1WpvqW1p6gwQKnN8efo9AmSYAsNpsd3NCrgcAl1L5JgA0NTW5JMYUAEC9Xn20NjU1Nbk4509GczQ3NjcfYoTYEvlq0rnEuSZvLGuKjkWcKIqzwfkqi802BxHDEBWEKwHAqVAEd8mOIDNAcpNckk5G1itwfjsA1FZWplmt1i2ckOvBWE0wDGO3270SYwpJJrsnVtusVuvrMpmsOkZeU6y884Wv+gtIY5Ir+Hw9UQ7PEw6sDa6nCCFP+IX9ZIYjSFIkhjgfcarSarVuAeergtoHBIZAn+9ZxH4vnDAmxsiD1Wpt+qq172uDyO9yhYGEvRQqGo082vfBgvkxgppENBp5ZJ5oNPLIFz7WN8XiEfSPSl48yzekCTXV1eWi0RjXqotHXjSiTCZTUm7Amurq8jFEvpIPNXydPhwXj5DQcCvJZC8Evh4UEwMymSNWnt1uH+Fwr29p6SWcP5lwKwF4Kb1oDJGzDmgngq8TeYmAgjE6VlQ6kqAIjHqxaq93QZLD3bjOK59rXFDk1VRXl0qMzUtANHrPD1vvhaO+paVXRcjkaHnRoPF4DuJr8AGiC4o8L6UXjXeRW1tZqZM4fyVWvpfSzETrqm9pGdce1X9YBIa1cff2gBETs7Mmue3u7651wAWkeQqFQsBZGAJOheJyxFln1re09CNxUr4Sg+QbBJCAZgW/unDB4ILRvLNFvOVDAN9o0wWOC0rz/h9EX7yVpBEOHgAAAABJRU5ErkJggg==;" vertex="1" parent="0Yolceih9RA4fNprkh5m-1">
          <mxGeometry x="824" y="199" width="111" height="57" as="geometry" />
        </mxCell>
        <mxCell id="0Yolceih9RA4fNprkh5m-21" style="edgeStyle=orthogonalEdgeStyle;rounded=0;orthogonalLoop=1;jettySize=auto;html=1;" edge="1" parent="0Yolceih9RA4fNprkh5m-1" source="0Yolceih9RA4fNprkh5m-22" target="0Yolceih9RA4fNprkh5m-20">
          <mxGeometry relative="1" as="geometry" />
        </mxCell>
        <mxCell id="0Yolceih9RA4fNprkh5m-22" value="cassandra-starter" style="rounded=1;whiteSpace=wrap;html=1;" vertex="1" parent="0Yolceih9RA4fNprkh5m-1">
          <mxGeometry x="819.5" y="70" width="120" height="60" as="geometry" />
        </mxCell>
        <mxCell id="0Yolceih9RA4fNprkh5m-23" value="业务封装" style="swimlane;startSize=23;" vertex="1" parent="1">
          <mxGeometry x="130" y="80" width="837.34" height="360" as="geometry" />
        </mxCell>
        <mxCell id="0Yolceih9RA4fNprkh5m-24" style="edgeStyle=orthogonalEdgeStyle;rounded=0;orthogonalLoop=1;jettySize=auto;html=1;" edge="1" parent="0Yolceih9RA4fNprkh5m-23" source="0Yolceih9RA4fNprkh5m-25" target="0Yolceih9RA4fNprkh5m-30">
          <mxGeometry relative="1" as="geometry" />
        </mxCell>
        <mxCell id="0Yolceih9RA4fNprkh5m-25" value="event-domain&lt;br&gt;事件" style="shape=ext;double=1;rounded=1;whiteSpace=wrap;html=1;" vertex="1" parent="0Yolceih9RA4fNprkh5m-23">
          <mxGeometry x="208.66" y="80" width="120" height="80" as="geometry" />
        </mxCell>
        <mxCell id="0Yolceih9RA4fNprkh5m-26" style="edgeStyle=orthogonalEdgeStyle;rounded=0;orthogonalLoop=1;jettySize=auto;html=1;" edge="1" parent="0Yolceih9RA4fNprkh5m-23" source="0Yolceih9RA4fNprkh5m-27" target="0Yolceih9RA4fNprkh5m-25">
          <mxGeometry relative="1" as="geometry" />
        </mxCell>
        <mxCell id="0Yolceih9RA4fNprkh5m-27" value="alarm-domain&lt;br&gt;告警管理" style="shape=ext;double=1;rounded=1;whiteSpace=wrap;html=1;" vertex="1" parent="0Yolceih9RA4fNprkh5m-23">
          <mxGeometry x="18.66" y="80" width="120" height="80" as="geometry" />
        </mxCell>
        <mxCell id="0Yolceih9RA4fNprkh5m-28" style="edgeStyle=orthogonalEdgeStyle;rounded=0;orthogonalLoop=1;jettySize=auto;html=1;" edge="1" parent="0Yolceih9RA4fNprkh5m-23" source="0Yolceih9RA4fNprkh5m-29" target="0Yolceih9RA4fNprkh5m-27">
          <mxGeometry relative="1" as="geometry" />
        </mxCell>
        <mxCell id="0Yolceih9RA4fNprkh5m-29" value="task-domain&lt;br&gt;任务" style="shape=ext;double=1;rounded=1;whiteSpace=wrap;html=1;" vertex="1" parent="0Yolceih9RA4fNprkh5m-23">
          <mxGeometry x="18.66" y="230" width="120" height="80" as="geometry" />
        </mxCell>
        <mxCell id="0Yolceih9RA4fNprkh5m-30" value="case-domain&lt;br&gt;案件" style="shape=ext;double=1;rounded=1;whiteSpace=wrap;html=1;" vertex="1" parent="0Yolceih9RA4fNprkh5m-23">
          <mxGeometry x="378.65999999999997" y="80" width="120" height="80" as="geometry" />
        </mxCell>
        <mxCell id="0Yolceih9RA4fNprkh5m-31" style="edgeStyle=orthogonalEdgeStyle;rounded=0;orthogonalLoop=1;jettySize=auto;html=1;" edge="1" parent="0Yolceih9RA4fNprkh5m-23" source="0Yolceih9RA4fNprkh5m-32" target="0Yolceih9RA4fNprkh5m-29">
          <mxGeometry relative="1" as="geometry" />
        </mxCell>
        <mxCell id="0Yolceih9RA4fNprkh5m-32" value="device-domain&lt;br&gt;设备" style="shape=ext;double=1;rounded=1;whiteSpace=wrap;html=1;" vertex="1" parent="0Yolceih9RA4fNprkh5m-23">
          <mxGeometry x="218.66" y="230" width="120" height="80" as="geometry" />
        </mxCell>
        <mxCell id="0Yolceih9RA4fNprkh5m-33" value="business-dict-service&lt;br&gt;业务字典维护&lt;br&gt;业务常量维护&lt;br&gt;业务开关维护" style="shape=ext;double=1;rounded=1;whiteSpace=wrap;html=1;" vertex="1" parent="0Yolceih9RA4fNprkh5m-23">
          <mxGeometry x="700" y="50" width="120" height="290" as="geometry" />
        </mxCell>
        <mxCell id="0Yolceih9RA4fNprkh5m-34" value="统一对外层" style="swimlane;shadow=0;rounded=0;sketch=0;glass=0;flipV=0;flipH=0;" vertex="1" parent="1">
          <mxGeometry x="130" y="-220" width="1210" height="180" as="geometry" />
        </mxCell>
        <mxCell id="0Yolceih9RA4fNprkh5m-35" value="auth-service&lt;br&gt;认证服务，加密狗，用户，权限，用户部门，用户组织" style="shape=ext;double=1;rounded=1;whiteSpace=wrap;html=1;" vertex="1" parent="0Yolceih9RA4fNprkh5m-34">
          <mxGeometry x="21" y="105" width="1169" height="60" as="geometry" />
        </mxCell>
        <mxCell id="0Yolceih9RA4fNprkh5m-36" value="whale-gateway&lt;br&gt;/skyline/common" style="shape=ext;double=1;rounded=1;whiteSpace=wrap;html=1;" vertex="1" parent="0Yolceih9RA4fNprkh5m-34">
          <mxGeometry x="21" y="40" width="1169" height="60" as="geometry" />
        </mxCell>
        <mxCell id="0Yolceih9RA4fNprkh5m-37" value="业务编排层" style="swimlane;startSize=23;" vertex="1" parent="1">
          <mxGeometry x="130" y="-40" width="1210" height="120" as="geometry" />
        </mxCell>
        <mxCell id="0Yolceih9RA4fNprkh5m-38" value="visual-dashboard-service&lt;br&gt;echarts数据响应" style="shape=ext;double=1;rounded=1;whiteSpace=wrap;html=1;" vertex="1" parent="0Yolceih9RA4fNprkh5m-37">
          <mxGeometry x="20" y="30" width="170" height="80" as="geometry" />
        </mxCell>
        <mxCell id="0Yolceih9RA4fNprkh5m-39" value="biz-service&lt;br&gt;业务编排" style="shape=ext;double=1;rounded=1;whiteSpace=wrap;html=1;" vertex="1" parent="0Yolceih9RA4fNprkh5m-37">
          <mxGeometry x="320" y="30" width="216" height="80" as="geometry" />
        </mxCell>
        <mxCell id="0Yolceih9RA4fNprkh5m-40" value="operator-service&lt;br&gt;运维服务" style="shape=ext;double=1;rounded=1;whiteSpace=wrap;html=1;" vertex="1" parent="0Yolceih9RA4fNprkh5m-37">
          <mxGeometry x="630" y="30" width="216" height="80" as="geometry" />
        </mxCell>
        <mxCell id="0Yolceih9RA4fNprkh5m-41" value="third-service&lt;br&gt;三方接入服务" style="shape=ext;double=1;rounded=1;whiteSpace=wrap;html=1;" vertex="1" parent="0Yolceih9RA4fNprkh5m-37">
          <mxGeometry x="950" y="30" width="216" height="80" as="geometry" />
        </mxCell>
        <mxCell id="0Yolceih9RA4fNprkh5m-42" value="支撑服务层" style="swimlane;" vertex="1" parent="1">
          <mxGeometry x="967.34" y="80" width="372.66" height="360" as="geometry" />
        </mxCell>
        <mxCell id="0Yolceih9RA4fNprkh5m-43" value="job-service&lt;br&gt;&lt;br&gt;xxl-job开源分布式job" style="shape=ext;double=1;rounded=1;whiteSpace=wrap;html=1;" vertex="1" parent="0Yolceih9RA4fNprkh5m-42">
          <mxGeometry x="31" y="30" width="169" height="70" as="geometry" />
        </mxCell>
        <mxCell id="0Yolceih9RA4fNprkh5m-44" value="push-service&lt;br&gt;&lt;br&gt;&lt;div&gt;mpush开源实时消息推送系统&lt;/div&gt;&lt;div&gt;&lt;br&gt;&lt;/div&gt;" style="shape=ext;double=1;rounded=1;whiteSpace=wrap;html=1;" vertex="1" parent="0Yolceih9RA4fNprkh5m-42">
          <mxGeometry x="31" y="142.5" width="169" height="67.5" as="geometry" />
        </mxCell>
        <mxCell id="0Yolceih9RA4fNprkh5m-45" value="workflow-service&lt;br&gt;activiti开源工作流引擎" style="shape=ext;double=1;rounded=1;whiteSpace=wrap;html=1;" vertex="1" parent="0Yolceih9RA4fNprkh5m-42">
          <mxGeometry x="31" y="260" width="169" height="65.5" as="geometry" />
        </mxCell>
        <mxCell id="0Yolceih9RA4fNprkh5m-46" value="nacos&lt;br&gt;服务配置中心" style="shape=ext;double=1;rounded=1;whiteSpace=wrap;html=1;" vertex="1" parent="0Yolceih9RA4fNprkh5m-42">
          <mxGeometry x="242.66" y="30" width="120" height="320" as="geometry" />
        </mxCell>
      </root>
    </mxGraphModel>
  </diagram>
</mxfile>
